<svg width="20" height="19" viewBox="0 0 20 19" fill="none" xmlns="http://www.w3.org/2000/svg">
<path fill-rule="evenodd" clip-rule="evenodd" d="M0.535341 0.0410445C0.232048 0.154989 0 0.485828 0 0.804193C0 1.00162 0.109092 1.24898 0.259144 1.39175C0.321449 1.451 0.780031 1.6908 1.27823 1.92457C1.77644 2.15833 2.22324 2.3887 2.27109 2.43648C2.34427 2.50948 2.5274 3.27351 3.41865 7.22403C4.1506 10.4684 4.51068 11.9919 4.58102 12.1416C4.80893 12.6268 5.2221 13.0136 5.73897 13.2255L5.96488 13.3181L11.262 13.3305C15.1703 13.3396 16.6158 13.3307 16.7757 13.2965C17.1293 13.2208 17.4665 13.0342 17.7634 12.7497C18.2339 12.2993 18.1979 12.4155 19.1407 8.30054C19.5967 6.31051 19.9802 4.5618 19.993 4.41456C20.0778 3.43587 19.3832 2.4741 18.4261 2.24509C18.2069 2.19264 17.3843 2.18464 12.1567 2.18412C5.56155 2.18348 5.99166 2.16797 5.73492 2.41553C5.56762 2.57685 5.49976 2.73865 5.4968 2.98313C5.49318 3.28199 5.62421 3.51879 5.883 3.68115L6.07681 3.80273L12.1187 3.82272L18.1606 3.84271L18.2755 3.97329C18.3593 4.06852 18.3904 4.14457 18.3904 4.25431C18.3904 4.47125 16.7941 11.4046 16.7164 11.5249C16.5723 11.7481 16.802 11.7389 11.3998 11.7389C6.06877 11.7389 6.2636 11.7459 6.0876 11.5454C6.03333 11.4836 5.73015 10.205 4.95804 6.78181C4.25197 3.65141 3.86861 2.02728 3.79984 1.87479C3.65417 1.55175 3.42003 1.26009 3.15797 1.07522C2.84716 0.855968 1.07159 0.0289704 0.857774 0.00386261C0.758291 -0.00781171 0.62423 0.00766078 0.535341 0.0410445ZM7.50084 14.9441C6.7099 15.0961 6.03112 15.8196 5.89993 16.6506C5.78033 17.4084 6.13265 18.2156 6.77224 18.6492C7.38143 19.0621 8.13991 19.1099 8.80049 18.7768C9.87673 18.2343 10.2355 16.8404 9.56221 15.8169C9.11529 15.1374 8.29721 14.7911 7.50084 14.9441ZM14.4717 14.9441C14.1447 15.007 13.7223 15.2383 13.4736 15.4908C13.1139 15.8559 12.9392 16.2108 12.8798 16.6965C12.7478 17.7769 13.441 18.7409 14.5083 18.9613C15.8228 19.2327 17.0598 18.0353 16.8672 16.6779C16.7025 15.5178 15.6082 14.7257 14.4717 14.9441ZM8.22116 16.2924C8.40166 16.3859 8.48452 16.4767 8.5627 16.6666C8.6428 16.8613 8.638 17.0799 8.54919 17.2762C8.46313 17.4664 8.37531 17.5516 8.18005 17.6345C7.92441 17.7429 7.58941 17.6878 7.38978 17.5045C7.10184 17.2402 7.10105 16.6668 7.38836 16.4116C7.61741 16.2081 7.96292 16.1586 8.22116 16.2924ZM15.308 16.362C15.5286 16.5409 15.6011 16.7083 15.5849 17.0015C15.5682 17.3041 15.4331 17.5068 15.1692 17.6253C14.4958 17.9277 13.8639 17.1598 14.2715 16.5344C14.4908 16.1981 15.0013 16.1132 15.308 16.362Z" fill="white"/>
</svg>
