<svg width="40" height="40" viewBox="0 0 40 40" fill="none" xmlns="http://www.w3.org/2000/svg">
<path d="M27.9808 26.433C28.293 26.2442 28.3209 25.9998 28.4285 25.8137C29.7622 23.5144 32.9904 23.5335 34.291 25.8544C34.5407 26.3013 35.3617 26.5851 35.7815 26.3841C35.9409 26.3067 35.9223 26.1763 35.9263 26.0473C35.9316 25.8436 35.9303 25.6399 35.929 25.4362C35.9263 25.0287 36.0299 24.5751 35.8878 24.2274C35.7271 23.8363 35.2182 24.0971 34.8728 23.9721C34.1794 23.7195 33.6812 23.1804 33.6732 22.4375C33.6546 20.5334 33.4447 20.585 35.3059 20.6068C35.4507 20.6081 35.5969 20.5742 35.7935 20.5511C35.4866 19.8041 34.9751 19.4171 34.2551 19.4089C32.285 19.3845 30.3149 19.4008 28.3448 19.3899C28.0299 19.3885 27.9143 19.5094 27.917 19.8286C27.921 20.1966 27.8041 20.5361 27.3737 20.5307C26.8901 20.5253 26.8409 20.1396 26.8409 19.7552C26.8396 16.7674 26.825 13.781 26.8516 10.7931C26.8569 10.2336 26.7161 10.0734 26.1568 10.0761C19.7589 10.0964 13.361 10.0964 6.96442 10.0761C6.44234 10.0747 6.29886 10.2146 6.30285 10.751C6.32809 13.6696 6.3148 16.5895 6.3148 19.5094C6.3148 19.69 6.32145 19.872 6.30285 20.0527C6.27495 20.3379 6.09959 20.509 5.82991 20.5334C5.52038 20.5606 5.32642 20.3759 5.26399 20.0771C5.22812 19.9033 5.24406 19.7172 5.24406 19.5352C5.24406 16.5257 5.24273 13.5148 5.24406 10.5052C5.24539 9.37393 5.61072 8.99774 6.71201 8.99774C13.264 8.99774 19.8173 8.99774 26.3693 8.99774C27.5756 8.99774 27.9542 9.34134 27.9077 10.5596C27.8825 11.2074 28.1003 11.35 28.6862 11.3228C29.725 11.2766 30.7666 11.2984 31.8067 11.3133C33.3278 11.3337 34.5753 12.6374 34.109 14.0865C33.64 15.5451 34.4092 16.6764 34.5301 17.9598C34.5514 18.1921 34.6922 18.3129 34.9433 18.4026C36.3541 18.9064 36.9918 19.8544 36.9944 21.3673C36.9971 23.1328 36.9798 24.8983 37.0037 26.6625C37.0117 27.2777 36.7805 27.5358 36.1814 27.5032C35.7629 27.4801 35.2913 27.3877 34.934 27.5426C34.5328 27.7164 34.6829 28.2895 34.5474 28.6739C34.0359 30.1189 32.6649 31.0695 31.1505 30.9935C29.6971 30.9202 28.3806 29.835 28.0977 28.3398C27.9675 27.6539 27.7337 27.4679 27.0469 27.4774C23.5942 27.5236 20.1402 27.5059 16.6875 27.4896C16.2291 27.4882 16.0073 27.5602 15.9116 28.1048C15.6034 29.8636 14.2364 31.0071 12.5785 30.9976C10.9379 30.9881 9.55493 29.7929 9.27728 28.0518C9.20023 27.5711 9.03949 27.4719 8.61438 27.491C7.90763 27.5222 7.19823 27.5086 6.49016 27.4964C5.66651 27.4814 5.27461 27.0795 5.24937 26.251C5.24539 26.1152 5.2321 25.9767 5.25203 25.8436C5.33041 25.3166 5.13645 25.0966 4.60374 25.17C4.32077 25.208 4.02851 25.17 3.74156 25.1781C3.34967 25.189 2.99098 25.1089 3.00426 24.624C3.01755 24.15 3.38421 24.0794 3.76946 24.0794C4.89866 24.0821 6.02785 24.0794 7.15705 24.0794C7.59943 24.0794 8.04314 24.0794 8.48552 24.0794C8.86944 24.0794 9.14975 24.241 9.14444 24.6648C9.13912 25.0668 8.86147 25.1808 8.50544 25.1754C7.93022 25.1673 7.35233 25.2039 6.77977 25.1659C6.22048 25.1306 6.34137 25.5081 6.31746 25.8327C6.29089 26.2035 6.34934 26.4262 6.80235 26.4058C7.55293 26.3719 8.3075 26.3882 9.05941 26.4004C9.31182 26.4045 9.4367 26.3067 9.56556 26.0785C11.072 23.4031 14.1448 23.4004 15.6486 26.0745C15.7947 26.3339 15.9528 26.4018 16.2212 26.4004C19.5862 26.3936 22.9512 26.3895 26.3162 26.4045C26.7174 26.4058 26.8622 26.2931 26.8529 25.8707C26.829 24.7856 26.8449 23.6978 26.8463 22.6127C26.8463 22.2066 26.8821 21.772 27.3976 21.7883C27.8971 21.8046 27.9316 22.2392 27.9316 22.6425C27.9316 23.7521 27.9316 24.8603 27.9343 25.9699C27.9343 26.0962 27.9635 26.2211 27.9887 26.4303L27.9808 26.433ZM30.6988 18.2735C31.4507 18.2735 32.2026 18.2613 32.9545 18.279C33.3225 18.2885 33.4952 18.1989 33.3863 17.7819C33.1551 16.8883 32.9413 15.9906 32.7274 15.0929C32.6663 14.8348 32.5321 14.7235 32.2624 14.7262C30.9579 14.7357 29.6533 14.7371 28.3487 14.7262C28.0312 14.7235 27.9183 14.8457 27.9223 15.1635C27.9329 16.0449 27.9383 16.9277 27.9197 17.8077C27.913 18.1581 28.0286 18.2885 28.3766 18.279C29.1498 18.26 29.9243 18.2735 30.6988 18.2735ZM31.3511 25.1835C30.1249 25.1822 29.0635 26.2497 29.0382 27.5113C29.013 28.792 30.0864 29.9057 31.3471 29.9057C32.5826 29.9057 33.636 28.8491 33.6586 27.5819C33.6825 26.304 32.6052 25.1849 31.3511 25.1835ZM12.6343 25.1835C11.4108 25.1605 10.3361 26.2171 10.2989 27.4814C10.2603 28.7662 11.3125 29.8853 12.5759 29.9043C13.8326 29.9233 14.9193 28.826 14.9166 27.5426C14.9153 26.2904 13.8671 25.2066 12.6343 25.1835ZM30.5327 13.6275C31.2607 13.6275 31.9901 13.6166 32.7181 13.6329C33.0528 13.6397 33.0967 13.4808 33.0037 13.2174C32.8164 12.6877 32.4178 12.4256 31.8891 12.4174C30.7187 12.3984 29.5484 12.431 28.3793 12.4011C27.8227 12.3862 27.9476 12.7542 27.921 13.0748C27.8891 13.4509 27.9648 13.6614 28.4125 13.6384C29.1166 13.6017 29.8247 13.6289 30.5314 13.6289L30.5327 13.6275ZM35.3298 21.7313C34.9871 21.7082 34.6975 21.6729 34.7214 22.1781C34.748 22.7267 35.0203 22.9115 35.5079 22.9481C36.026 22.9875 35.8931 22.6249 35.933 22.3315C36.0034 21.806 35.7815 21.6376 35.3298 21.7313Z" fill="#D1210F"/>
<path d="M15.74 20.9955C15.4894 21.0075 15.3376 20.8372 15.1813 20.679C14.2275 19.704 13.278 18.7245 12.3183 17.7555C12.019 17.4526 11.8613 17.1075 12.1768 16.776C12.5306 16.4053 12.88 16.6087 13.1896 16.9297C13.9134 17.6802 14.6594 18.4065 15.367 19.1706C15.6575 19.484 15.83 19.4674 16.1204 19.1645C17.5976 17.6259 19.0969 16.1084 20.5888 14.5849C20.7097 14.4613 20.8276 14.3317 20.9544 14.2142C21.2257 13.9595 21.5338 13.9098 21.808 14.172C22.0866 14.4372 22.0498 14.7507 21.8124 15.0415C21.7815 15.0807 21.7461 15.1154 21.7107 15.1515C19.8885 17.0126 18.0679 18.8737 16.2457 20.7333C16.1056 20.8764 15.9567 21.009 15.7386 20.997L15.74 20.9955Z" fill="#D1210F"/>
<path d="M21.4764 24.9964C20.2309 24.9964 18.9867 24.9939 17.7412 24.9976C17.3554 24.9989 16.9896 24.9606 17.0043 24.4983C17.0177 24.0558 17.3768 23.9977 17.7626 23.9977C20.2522 23.999 22.7432 24.0002 25.2329 23.9977C25.62 23.9977 25.9858 24.0546 26.0031 24.4897C26.0245 24.9952 25.608 24.9989 25.2102 24.9976C23.9647 24.9952 22.7205 24.9976 21.475 24.9964H21.4764Z" fill="#D1210F"/>
<path d="M8.03359 22.9939C6.94927 22.9939 5.86496 22.9902 4.78064 22.9963C4.393 22.9988 4.01078 22.9741 4.004 22.518C3.99723 22.0818 4.34421 21.9977 4.74947 21.9977C6.9181 22.0014 9.08673 22.0014 11.254 21.9977C11.662 21.9977 12.0171 22.0941 12.0035 22.518C11.99 22.9469 11.6145 23.0013 11.2174 22.9976C10.1561 22.9877 9.09486 22.9939 8.03223 22.9939H8.03359Z" fill="#D1210F"/>
<path d="M33.0038 27.5023C32.9967 27.7602 32.2866 27.9953 31.5139 27.9977C30.743 27.9995 30.024 27.7673 30.0044 27.5089C29.9829 27.2391 30.7305 26.9902 31.539 26.9979C32.3188 27.0057 33.0128 27.2444 33.0038 27.5023Z" fill="#D1210F"/>
<path d="M12.9893 26.9978C13.5053 26.9936 13.9855 27.2235 14.0034 27.4844C14.0213 27.7411 13.5662 27.9841 13.0455 27.9972C12.5092 28.0104 12.0027 27.7674 12.0039 27.4975C12.0051 27.2384 12.4709 27.002 12.9893 26.9978Z" fill="#D1210F"/>
</svg>
