<svg width="40" height="40" viewBox="0 0 40 40" fill="none" xmlns="http://www.w3.org/2000/svg">
<g clip-path="url(#clip0_2124_3557)">
<path d="M29.3874 27.5673C29.7547 27.3452 29.7875 27.0577 29.9141 26.8388C31.4831 24.1343 35.2805 24.1567 36.8105 26.8867C37.1043 27.4123 38.07 27.7462 38.5639 27.5098C38.7514 27.4187 38.7295 27.2653 38.7342 27.1136C38.7405 26.874 38.7389 26.6343 38.7373 26.3947C38.7342 25.9155 38.8561 25.3819 38.6889 24.973C38.4998 24.5129 37.9013 24.8196 37.4949 24.6726C36.6792 24.3755 36.0932 23.7413 36.0838 22.8675C36.0619 20.6278 35.815 20.6885 38.0044 20.7141C38.1747 20.7157 38.3466 20.6757 38.5779 20.6486C38.2169 19.77 37.6153 19.3147 36.7683 19.3051C34.4507 19.2764 32.1332 19.2955 29.8156 19.2827C29.4453 19.2811 29.3093 19.4233 29.3124 19.7987C29.3171 20.2316 29.1796 20.631 28.6733 20.6246C28.1044 20.6182 28.0466 20.1646 28.0466 19.7125C28.045 16.198 28.0278 12.6852 28.0591 9.1707C28.0654 8.51254 27.8997 8.32404 27.2418 8.32724C19.7156 8.3512 12.1894 8.3512 4.66482 8.32724C4.05066 8.32564 3.88189 8.49018 3.88657 9.12118C3.91627 12.5542 3.90064 15.9887 3.90064 19.4233C3.90064 19.6358 3.90845 19.8499 3.88657 20.0623C3.85376 20.3978 3.64747 20.5991 3.33024 20.6278C2.96612 20.6598 2.73796 20.4425 2.66451 20.0911C2.62231 19.8866 2.64107 19.6677 2.64107 19.4537C2.64107 15.9137 2.6395 12.3721 2.64107 8.83204C2.64263 7.50134 3.07238 7.05884 4.3679 7.05884C12.0754 7.05884 19.7844 7.05884 27.4918 7.05884C28.9108 7.05884 29.3562 7.463 29.3015 8.89594C29.2718 9.65794 29.5281 9.82567 30.2172 9.79372C31.4393 9.73941 32.6645 9.76497 33.8881 9.78254C35.6775 9.8065 37.1449 11.3401 36.5964 13.0446C36.0447 14.7603 36.9496 16.091 37.0918 17.6006C37.1168 17.8738 37.2824 18.0159 37.5778 18.1214C39.2374 18.714 39.9875 19.8291 39.9907 21.6087C39.9938 23.6854 39.9735 25.7621 40.0016 27.8372C40.011 28.5609 39.739 28.8644 39.0343 28.8261C38.542 28.7989 37.9872 28.6903 37.5668 28.8724C37.0949 29.0769 37.2715 29.751 37.1121 30.2031C36.5104 31.9028 34.8977 33.0211 33.1161 32.9316C31.4065 32.8453 29.8578 31.569 29.525 29.8101C29.3718 29.0034 29.0968 28.7846 28.2888 28.7957C24.2273 28.85 20.1641 28.8293 16.1025 28.8101C15.5634 28.8085 15.3024 28.8932 15.1899 29.5338C14.8273 31.6025 13.2193 32.9476 11.269 32.9364C9.33899 32.9252 7.71217 31.5194 7.38556 29.4715C7.29492 28.906 7.10583 28.7893 6.60575 28.8117C5.77437 28.8484 4.93986 28.8325 4.10692 28.8181C3.13802 28.8005 2.67701 28.3277 2.64732 27.3532C2.64263 27.1935 2.627 27.0305 2.65044 26.874C2.74265 26.2541 2.51448 25.9954 1.88782 26.0816C1.55496 26.1263 1.21116 26.0816 0.873603 26.0912C0.412594 26.104 -0.00934718 26.0097 0.00628026 25.4394C0.0219077 24.8819 0.453225 24.7988 0.906421 24.7988C2.23475 24.802 3.56309 24.7988 4.89142 24.7988C5.41181 24.7988 5.93377 24.7988 6.45416 24.7988C6.9058 24.7988 7.23553 24.9889 7.22928 25.4874C7.22303 25.9602 6.89642 26.0944 6.4776 26.088C5.80094 26.0784 5.12114 26.1216 4.4476 26.0768C3.78968 26.0353 3.93189 26.4794 3.90376 26.8612C3.87251 27.2973 3.94127 27.5593 4.47417 27.5353C5.35712 27.4954 6.24475 27.5146 7.12927 27.5289C7.42619 27.5337 7.57309 27.4187 7.72467 27.1503C9.49683 24.0033 13.1115 24.0001 14.8805 27.1455C15.0524 27.4507 15.2383 27.5305 15.554 27.5289C19.5125 27.5209 23.4709 27.5162 27.4293 27.5337C27.9013 27.5353 28.0716 27.4027 28.0607 26.9059C28.0325 25.6295 28.0513 24.3499 28.0528 23.0736C28.0528 22.5959 28.095 22.0847 28.7014 22.1039C29.289 22.1231 29.3296 22.6343 29.3296 23.1087C29.3296 24.4138 29.3296 25.7174 29.3327 27.0225C29.3327 27.1711 29.3671 27.3181 29.3968 27.5641L29.3874 27.5673ZM32.5848 17.9696C33.4693 17.9696 34.3538 17.9552 35.2383 17.976C35.6712 17.9872 35.8744 17.8818 35.7462 17.3913C35.4743 16.3402 35.2227 15.2843 34.9711 14.2283C34.8992 13.9248 34.7414 13.7938 34.4242 13.797C32.8895 13.8082 31.3549 13.8098 29.8203 13.797C29.4468 13.7938 29.314 13.9376 29.3187 14.3114C29.3312 15.3482 29.3374 16.3865 29.3155 17.4217C29.3077 17.8338 29.4437 17.9872 29.8531 17.976C30.7626 17.9536 31.6737 17.9696 32.5848 17.9696ZM33.3521 26.0976C31.9097 26.096 30.6611 27.3516 30.6314 28.8357C30.6017 30.3421 31.8644 31.652 33.3474 31.652C34.8008 31.652 36.04 30.4092 36.0666 28.9187C36.0947 27.4155 34.8273 26.0992 33.3521 26.0976ZM11.3346 26.0976C9.89532 26.0704 8.63106 27.3133 8.58731 28.8005C8.54199 30.3117 9.77968 31.6281 11.2659 31.6504C12.7442 31.6728 14.0225 30.382 14.0194 28.8724C14.0178 27.3995 12.7848 26.1247 11.3346 26.0976ZM32.3895 12.5046C33.2458 12.5046 34.1038 12.4919 34.9602 12.511C35.354 12.519 35.4056 12.3321 35.2962 12.0222C35.0758 11.3992 34.607 11.0909 33.985 11.0813C32.6082 11.0589 31.2315 11.0973 29.8563 11.0621C29.2015 11.0445 29.3484 11.4775 29.3171 11.8545C29.2796 12.297 29.3687 12.5446 29.8953 12.5174C30.7236 12.4743 31.5565 12.5062 32.3879 12.5062L32.3895 12.5046ZM38.0325 22.0368C37.6293 22.0096 37.2887 21.9681 37.3168 22.5624C37.348 23.2078 37.6684 23.425 38.2419 23.4681C38.8514 23.5145 38.6951 23.0879 38.742 22.7429C38.8248 22.1247 38.5639 21.9266 38.0325 22.0368Z" fill="#D1210F"/>
<path d="M15.3059 20.6342C15.0402 20.647 14.8792 20.4665 14.7136 20.2988C13.7025 19.2652 12.6961 18.2268 11.6787 17.1997C11.3615 16.8786 11.1943 16.5127 11.5287 16.1613C11.9038 15.7683 12.2742 15.984 12.6023 16.3242C13.3696 17.1198 14.1604 17.8898 14.9105 18.6997C15.2184 19.032 15.4012 19.0144 15.7091 18.6933C17.2749 17.0623 18.8642 15.4536 20.4457 13.8386C20.5739 13.7076 20.6989 13.5702 20.8333 13.4456C21.1208 13.1756 21.4475 13.1229 21.7381 13.4009C22.0335 13.682 21.9944 14.0143 21.7428 14.3226C21.71 14.3641 21.6725 14.4009 21.635 14.4392C19.7034 16.4121 17.7734 18.385 15.8419 20.3563C15.6934 20.508 15.5356 20.6486 15.3043 20.6358L15.3059 20.6342Z" fill="#D1210F"/>
<path d="M21.2892 26.0912C19.8311 26.0912 18.3746 26.088 16.9166 26.0928C16.465 26.0944 16.0368 26.0449 16.054 25.4475C16.0696 24.8756 16.49 24.8005 16.9416 24.8005C19.8561 24.8021 22.7722 24.8037 25.6867 24.8005C26.1399 24.8005 26.5681 24.874 26.5884 25.4363C26.6134 26.0896 26.1259 26.0944 25.6602 26.0928C24.2021 26.0896 22.7456 26.0928 21.2876 26.0912H21.2892Z" fill="#D1210F"/>
<path d="M5.99967 23.3643C4.74947 23.3643 3.49928 23.3595 2.24908 23.3675C1.80214 23.3707 1.36144 23.3387 1.35363 22.7493C1.34581 22.1853 1.74588 22.0767 2.21314 22.0767C4.71353 22.0815 7.21392 22.0815 9.71275 22.0767C10.1831 22.0767 10.5926 22.2013 10.5769 22.7493C10.5613 23.3036 10.1284 23.3739 9.67055 23.3691C8.44692 23.3563 7.2233 23.3643 5.9981 23.3643H5.99967Z" fill="#D1210F"/>
<path d="M34.6582 28.89C34.652 29.5801 34.0316 30.2095 33.3565 30.2159C32.6829 30.2207 32.0547 29.5992 32.0375 28.9075C32.0188 28.1855 32.672 27.5193 33.3783 27.5401C34.0597 27.5609 34.666 28.1998 34.6582 28.89Z" fill="#D1210F"/>
<path d="M11.2812 27.5385C11.9563 27.5273 12.5845 28.1423 12.608 28.8404C12.6314 29.5273 12.036 30.1775 11.3547 30.2127C10.653 30.2478 9.99038 29.5976 9.99195 28.8756C9.99351 28.1823 10.603 27.5497 11.2812 27.5385Z" fill="#D1210F"/>
</g>
<defs>
<clipPath id="clip0_2124_3557">
<rect width="40" height="40" fill="white"/>
</clipPath>
</defs>
</svg>
