<svg width="42" height="42" viewBox="0 0 42 42" fill="none" xmlns="http://www.w3.org/2000/svg">
<path d="M25.5777 23.4078C28.0079 23.4078 30.3148 23.4078 32.6217 23.4078C34.8926 23.4078 35.9415 25.0164 34.9993 27.0883C34.8705 27.3719 34.9993 27.4393 35.149 27.588C36.4139 28.8556 36.2588 30.4811 34.7499 31.4904C34.4867 31.6658 34.4922 31.7739 34.5837 32.0308C35.0437 33.325 34.7319 34.3105 33.6124 35.0572C33.3492 35.2327 33.3062 35.3352 33.4184 35.651C34.0502 37.4337 32.9584 38.9848 31.0894 38.9891C27.5576 38.9947 24.0259 38.9905 20.4942 38.9905C19.2001 38.9905 17.985 38.6957 16.8627 38.0261C16.5454 37.8366 16.2212 37.6555 15.8832 37.5081C14.9812 37.1165 14.8149 37.1783 14.2565 37.9728C13.7993 38.6241 13.1661 38.9736 12.3778 38.9848C11.3622 39.0003 10.3466 39.0045 9.33099 38.9848C8.06045 38.9596 7.02408 37.9559 7.01715 36.6673C6.9936 32.6218 6.99498 28.5763 7.01715 24.5307C7.02408 23.3081 7.92467 22.3339 9.13285 22.2567C10.2593 22.1851 11.394 22.2076 12.5232 22.2427C13.4044 22.2708 14.057 22.7578 14.4311 23.5467C14.614 23.9328 14.8011 24.0001 15.1752 23.8906C17.8271 23.1144 19.8195 21.472 21.2382 19.111C21.7647 18.2337 21.7343 17.2525 21.5278 16.2558C21.2244 14.7974 21.6359 13.847 22.7305 13.2912C23.8389 12.7297 25.0692 12.9781 25.9837 14.0085C27.1143 15.2816 27.3498 16.8215 27.1683 18.4625C26.9799 20.175 26.3855 21.7598 25.5777 23.4064V23.4078ZM25.4267 37.7594C25.4267 37.7594 25.4267 37.7678 25.4267 37.772C27.3193 37.772 29.212 37.7805 31.1046 37.7678C31.9151 37.7622 32.389 37.3285 32.4111 36.635C32.4347 35.9107 31.9484 35.4348 31.1212 35.3983C30.6598 35.3787 30.1985 35.3927 29.7371 35.3913C29.3173 35.3913 28.903 35.3338 28.9085 34.7891C28.9141 34.2459 29.3214 34.1996 29.7454 34.2024C30.6224 34.2094 31.4995 34.2234 32.3765 34.1968C33.1219 34.1743 33.6263 33.6409 33.6055 32.9615C33.5847 32.2933 33.1053 31.8371 32.3696 31.8245C31.5161 31.8104 30.6612 31.8189 29.8077 31.8217C29.3671 31.8217 28.9141 31.7866 28.9085 31.2096C28.903 30.6355 29.3505 30.5808 29.7939 30.5808C30.9938 30.5808 32.1936 30.585 33.3949 30.5794C34.2664 30.5752 34.8012 30.1119 34.7887 29.3862C34.7763 28.6591 34.2442 28.2071 33.363 28.2015C32.1853 28.193 31.009 28.1973 29.8313 28.2001C29.4045 28.2001 28.9224 28.2253 28.9127 27.6316C28.9016 26.983 29.417 27.0209 29.8618 27.0195C30.8774 27.0167 31.893 27.0434 32.9086 27.0097C33.9394 26.976 34.5088 26.0468 34.0391 25.2256C33.7607 24.7385 33.3159 24.6318 32.7991 24.6332C30.3065 24.6416 27.814 24.6374 25.3214 24.636C23.7973 24.636 23.6851 24.4227 24.3986 23.0414C25.3699 21.1632 26.1499 19.2247 25.9892 17.0377C25.9158 16.0481 25.5888 15.1637 24.781 14.5391C24.1617 14.059 23.2694 14.1348 22.8496 14.7019C22.4935 15.1834 22.6252 15.7378 22.7318 16.2558C23.0076 17.5992 22.8704 18.8934 22.1083 20.022C20.4055 22.5445 18.2136 24.4283 15.1821 25.1063C14.8579 25.1793 14.6985 25.2958 14.7138 25.6537C14.7359 26.1675 14.7179 26.6826 14.7179 27.1964C14.7179 29.9323 14.7179 32.6681 14.7179 35.404C14.7179 35.7338 14.6708 36.0244 15.1765 36.0665C15.9677 36.1325 16.6785 36.4932 17.3504 36.913C18.215 37.4534 19.153 37.7468 20.1658 37.7552C21.9199 37.7678 23.674 37.7594 25.4281 37.7594H25.4267ZM8.2184 30.6355C8.2184 32.5769 8.21009 34.5182 8.22256 36.4596C8.2281 37.3341 8.63545 37.7482 9.49448 37.7664C10.3951 37.7861 11.2957 37.7847 12.1949 37.7664C13.0844 37.7496 13.5111 37.3186 13.5125 36.4217C13.5194 32.539 13.5194 28.6563 13.5125 24.7736C13.5111 23.8935 13.0539 23.4316 12.1907 23.4162C11.3594 23.4008 10.5281 23.4092 9.69677 23.4134C8.62714 23.419 8.22395 23.8134 8.21979 24.8817C8.21286 26.7992 8.2184 28.718 8.21979 30.6355H8.2184Z" fill="#010101"/>
<path d="M29.9845 15.998C29.5641 15.9289 29.3793 15.6632 29.3765 15.2743C29.3736 14.646 29.2424 14.0385 29.0619 13.4435C28.4284 11.3622 27.0515 10.2648 24.8451 10.0821C24.4247 10.0475 24.0029 10.0337 24 9.48845C23.9958 8.93906 24.4303 8.92937 24.8423 8.88509C27.5495 8.59864 29.1606 6.89512 29.3567 4.12052C29.368 3.95999 29.3595 3.7967 29.3779 3.63756C29.4174 3.28329 29.5712 3.00652 29.9775 2.99822C30.4233 2.98992 30.6052 3.28191 30.6151 3.66662C30.6349 4.3876 30.7774 5.0809 31.0186 5.7576C31.6647 7.57597 32.902 8.68305 34.9095 8.8588C35.0971 8.8754 35.2834 8.88924 35.4696 8.91554C35.8265 8.96397 36.0184 9.16601 35.9986 9.52304C35.9817 9.84548 35.7856 10.0185 35.4639 10.0586C35.3948 10.0669 35.3229 10.0655 35.2537 10.0724C32.7242 10.3049 31.2796 11.5684 30.7816 14.0039C30.6941 14.4302 30.6659 14.8688 30.6222 15.302C30.5827 15.6922 30.4049 15.9482 29.9831 15.9967L29.9845 15.998ZM29.9986 6.57269C29.4329 7.85274 28.5794 8.77162 27.3605 9.49813C28.6034 10.1831 29.4174 11.1435 30.0057 12.3945C30.5756 11.0937 31.4461 10.1873 32.6212 9.4843C31.415 8.77023 30.5784 7.86105 29.9986 6.57269Z" fill="#010101"/>
<path d="M18 14.984C17.9798 15.4452 17.7152 15.6537 17.3807 15.6405C15.6249 15.5729 14.7046 17.394 14.6187 18.9683C14.6106 19.1151 14.5931 19.2605 14.5716 19.4059C14.5193 19.7598 14.3527 20.008 14.0007 19.9977C13.6286 19.9875 13.4405 19.7451 13.4217 19.3383C13.3908 18.6481 13.2632 17.9799 12.9932 17.3543C12.5606 16.3513 11.8687 15.7286 10.8195 15.6713C10.4125 15.6493 10.0054 15.5568 10.0001 15.0207C9.99468 14.4935 10.3641 14.3937 10.794 14.3584C12.0823 14.2556 12.9461 13.3466 13.2739 11.7928C13.3438 11.4609 13.4002 11.1187 13.4123 10.7795C13.4271 10.3595 13.556 10.0261 13.9591 9.99967C14.4118 9.9703 14.569 10.3433 14.5918 10.7721C14.6254 11.3875 14.7275 11.9852 14.9545 12.5491C15.3965 13.6491 16.1421 14.3055 17.2652 14.3628C17.6736 14.3834 17.9624 14.5155 18 14.984ZM15.3051 15.0193C14.7879 14.5581 14.3513 14.0529 14.0128 13.3936C13.6595 13.9237 13.3693 14.4495 12.9112 14.8093C12.7392 14.9444 12.7379 15.0604 12.9058 15.1999C13.3532 15.57 13.6608 16.0796 14.0101 16.598C14.3648 15.9827 14.7396 15.4437 15.3038 15.0178L15.3051 15.0193Z" fill="#010101"/>
<path d="M22 5.54655C21.992 5.89722 20.935 6.98258 20.6044 6.99724C20.3906 7.00791 20.21 6.91191 20.0998 6.73324C19.9763 6.5319 19.9537 6.28656 20.1104 6.10923C20.4158 5.76122 20.7478 5.43321 21.0891 5.11987C21.267 4.95587 21.5074 4.97187 21.7119 5.08254C21.8938 5.18121 21.9894 5.36121 22 5.54655Z" fill="#010101"/>
<path d="M17.5825 9.99605C17.3577 10.006 17.1827 9.83622 17.0858 9.57251C16.9606 9.23487 16.9633 8.85728 17.1545 8.55761C17.4465 8.1021 17.7467 7.65658 18.0536 7.22505C18.2326 6.97332 18.4547 6.93336 18.6754 7.09319C18.8948 7.25102 19.0052 7.53871 18.9998 7.89832C18.9917 8.39978 17.9149 9.98206 17.5825 9.99805V9.99605Z" fill="#010101"/>
<path d="M22 9.03203C21.9694 9.82715 21.4677 10.2428 21.123 9.84522C20.7597 9.42558 20.431 8.91758 20.1356 8.3875C19.932 8.02408 19.9573 7.5723 20.2141 7.23096C20.447 6.92376 20.7145 6.91573 20.9287 7.23498C21.3293 7.8273 21.8203 8.31522 22 9.03203Z" fill="#010101"/>
<path d="M34.9989 17.0127C34.9989 17.1117 34.9955 17.2095 34.9989 17.3085C35.0137 17.695 34.8777 18.0051 34.4844 17.9979C34.124 17.9908 33.9994 17.683 34.0016 17.3276C34.0028 17.0914 33.996 16.8553 34.0039 16.6191C34.0164 16.2684 34.1297 15.9809 34.5218 15.9988C34.9094 16.0155 35.0035 16.3078 34.9989 16.6596C34.9978 16.7777 34.9989 16.8958 34.9989 17.0139V17.0127Z" fill="#010101"/>
<path d="M34.9994 20.5268C34.9994 20.6748 34.9994 20.821 34.9994 20.969C35.004 21.5254 34.919 22.0034 34.4909 21.998C34.0944 21.9927 34.0129 21.529 34.0038 21.0172C33.9982 20.6641 33.9993 20.3092 34.0038 19.9543C34.0118 19.4193 34.1522 18.9824 34.5181 18.9985C34.8816 19.0145 35.0096 19.455 34.9994 19.9953C34.996 20.1719 34.9994 20.3502 34.9994 20.5268Z" fill="#010101"/>
<path d="M18.4329 6.9967C18.0239 7.00476 16.9745 5.93461 17.0005 5.53716C17.0278 5.12092 17.4903 4.84163 17.8337 5.09406C18.2291 5.38275 18.593 5.73723 18.8927 6.12125C19.1704 6.47841 18.8708 6.98865 18.4329 6.99805V6.9967Z" fill="#010101"/>
<path d="M33.0298 18.998C32.6058 18.9559 31.9976 19.1479 32 18.5017C32.0024 17.8602 32.6058 18.0124 33.019 18.017C33.4068 18.0217 33.9777 17.8473 33.9994 18.4736C34.0223 19.1573 33.4188 18.9454 33.0298 18.998Z" fill="#010101"/>
<path d="M36.4935 18.9969C35.9301 18.9359 35.0073 19.1751 35.0001 18.5079C34.991 17.85 35.8958 18.0189 36.5062 18.0142C37.1292 18.0095 38.0213 17.8711 37.9996 18.5243C37.9779 19.1282 37.1238 18.9652 36.4953 18.998L36.4935 18.9969Z" fill="#010101"/>
</svg>
