<svg width="38" height="38" viewBox="0 0 38 38" fill="none" xmlns="http://www.w3.org/2000/svg">
<path d="M4 16.1053H34M24.7692 24.2105H28.2308M31.6923 8H6.30769C5.69565 8 5.10868 8.24398 4.67591 8.67828C4.24313 9.11257 4 9.7016 4 10.3158V27.6842C4 28.2984 4.24313 28.8874 4.67591 29.3217C5.10868 29.756 5.69565 30 6.30769 30H31.6923C32.3043 30 32.8913 29.756 33.3241 29.3217C33.7569 28.8874 34 28.2984 34 27.6842V10.3158C34 9.7016 33.7569 9.11257 33.3241 8.67828C32.8913 8.24398 32.3043 8 31.6923 8Z" stroke="#D1210F" stroke-width="1.5" stroke-linecap="round" stroke-linejoin="round"/>
</svg>
