<svg width="32" height="24" viewBox="0 0 32 24" fill="none" xmlns="http://www.w3.org/2000/svg">
<path d="M0.75 8.85526H30.75M21.5192 16.9605H24.9808M28.4423 0.75H3.05769C2.44565 0.75 1.85868 0.993984 1.42591 1.42828C0.993131 1.86257 0.75 2.4516 0.75 3.06579V20.4342C0.75 21.0484 0.993131 21.6374 1.42591 22.0717C1.85868 22.506 2.44565 22.75 3.05769 22.75H28.4423C29.0543 22.75 29.6413 22.506 30.0741 22.0717C30.5069 21.6374 30.75 21.0484 30.75 20.4342V3.06579C30.75 2.4516 30.5069 1.86257 30.0741 1.42828C29.6413 0.993984 29.0543 0.75 28.4423 0.75Z" stroke="#D1210F" stroke-width="1.5" stroke-linecap="round" stroke-linejoin="round"/>
</svg>
