<svg width="26" height="26" viewBox="0 0 26 26" fill="none" xmlns="http://www.w3.org/2000/svg">
<path d="M9.05357 1.85693C8.37632 1.85693 7.72681 2.12597 7.24792 2.60486C6.76904 3.08375 6.5 3.73326 6.5 4.41051V21.5891C6.5 22.2663 6.76904 22.9158 7.24792 23.3947C7.72681 23.8736 8.37632 24.1426 9.05357 24.1426H16.9464C17.6237 24.1426 18.2732 23.8736 18.7521 23.3947C19.231 22.9158 19.5 22.2663 19.5 21.5891V4.41051C19.5 3.73326 19.231 3.08375 18.7521 2.60486C18.2732 2.12597 17.6237 1.85693 16.9464 1.85693H9.05357ZM7.89286 4.41051C7.89286 3.76979 8.41286 3.24979 9.05357 3.24979H16.9464C17.5871 3.24979 18.1071 3.76979 18.1071 4.41051V21.5891C18.1071 22.2298 17.5871 22.7498 16.9464 22.7498H9.05357C8.41286 22.7498 7.89286 22.2298 7.89286 21.5891V4.41051ZM11.375 19.4998C11.1903 19.4998 11.0132 19.5732 10.8826 19.7038C10.7519 19.8344 10.6786 20.0115 10.6786 20.1962C10.6786 20.3809 10.7519 20.5581 10.8826 20.6887C11.0132 20.8193 11.1903 20.8926 11.375 20.8926H14.625C14.8097 20.8926 14.9868 20.8193 15.1174 20.6887C15.2481 20.5581 15.3214 20.3809 15.3214 20.1962C15.3214 20.0115 15.2481 19.8344 15.1174 19.7038C14.9868 19.5732 14.8097 19.4998 14.625 19.4998H11.375Z" fill="#D1210F"/>
</svg>
