<svg width="13" height="23" viewBox="0 0 13 23" fill="none" xmlns="http://www.w3.org/2000/svg">
<path d="M2.55357 0C1.87632 0 1.22681 0.269036 0.747924 0.747924C0.269036 1.22681 0 1.87632 0 2.55357V19.7321C0 20.4094 0.269036 21.0589 0.747924 21.5378C1.22681 22.0167 1.87632 22.2857 2.55357 22.2857H10.4464C11.1237 22.2857 11.7732 22.0167 12.2521 21.5378C12.731 21.0589 13 20.4094 13 19.7321V2.55357C13 1.87632 12.731 1.22681 12.2521 0.747924C11.7732 0.269036 11.1237 0 10.4464 0H2.55357ZM1.39286 2.55357C1.39286 1.91286 1.91286 1.39286 2.55357 1.39286H10.4464C11.0871 1.39286 11.6071 1.91286 11.6071 2.55357V19.7321C11.6071 20.3729 11.0871 20.8929 10.4464 20.8929H2.55357C1.91286 20.8929 1.39286 20.3729 1.39286 19.7321V2.55357ZM4.875 17.6429C4.6903 17.6429 4.51316 17.7162 4.38255 17.8468C4.25195 17.9774 4.17857 18.1546 4.17857 18.3393C4.17857 18.524 4.25195 18.7011 4.38255 18.8317C4.51316 18.9623 4.6903 19.0357 4.875 19.0357H8.125C8.3097 19.0357 8.48684 18.9623 8.61745 18.8317C8.74806 18.7011 8.82143 18.524 8.82143 18.3393C8.82143 18.1546 8.74806 17.9774 8.61745 17.8468C8.48684 17.7162 8.3097 17.6429 8.125 17.6429H4.875Z" fill="#D1210F"/>
</svg>
