<svg width="16" height="15" viewBox="0 0 16 15" fill="none" xmlns="http://www.w3.org/2000/svg">
<path fill-rule="evenodd" clip-rule="evenodd" d="M3.4532 0.0429243C2.56466 0.227955 1.77507 0.689381 1.17282 1.37554C0.704397 1.9092 0.40363 2.45264 0.205425 3.12337C-0.134331 4.27306 -0.0486558 5.6407 0.432862 6.75346C0.772689 7.53877 0.780848 7.54871 3.92042 11.0054C5.52224 12.769 6.9178 14.2742 7.02161 14.3503C7.56081 14.7454 8.28406 14.7729 8.82397 14.4189C8.97752 14.3183 9.81039 13.429 11.9881 11.0406C13.6137 9.25758 15.035 7.667 15.1465 7.50585C16.1102 6.11327 16.2735 4.15357 15.5562 2.58917C14.4825 0.247435 11.928 -0.638754 9.72762 0.567118C9.25817 0.824384 8.92583 1.09704 8.41905 1.6406L7.94761 2.14625L7.44725 1.591C6.70275 0.764811 6.10008 0.357776 5.26458 0.116913C4.97233 0.0326773 4.8213 0.01456 4.31403 0.00298829C3.90123 -0.00640154 3.62962 0.00618323 3.4532 0.0429243ZM4.94533 1.34854C5.29995 1.44816 5.65113 1.61192 5.91298 1.79976C6.02866 1.88275 6.46655 2.32224 6.88605 2.77638C7.99763 3.97972 7.90883 3.97637 8.94367 2.85344C9.34367 2.41941 9.74277 2.0112 9.83058 1.94633C10.2044 1.67025 10.7271 1.43652 11.1586 1.35259C11.4687 1.29228 12.1 1.30272 12.413 1.37336C13.5224 1.62377 14.4224 2.57541 14.7313 3.82469C14.8412 4.26948 14.8412 5.09422 14.7313 5.53901C14.635 5.92844 14.4525 6.35519 14.2471 6.67133C14.0641 6.95298 8.4314 13.1901 8.24706 13.3152C8.08348 13.4262 7.81911 13.4278 7.65961 13.3186C7.59511 13.2745 6.27242 11.8392 4.72027 10.129C2.59872 7.79144 1.8562 6.94948 1.72923 6.73721C1.50502 6.36251 1.36252 6.00909 1.25421 5.55892C1.13206 5.05144 1.12617 4.21875 1.24136 3.74676C1.48246 2.75888 2.07466 1.97481 2.88877 1.56552C3.54533 1.23547 4.27039 1.15899 4.94533 1.34854Z" fill="#6F6F6F"/>
</svg>
