<svg width="15" height="13" viewBox="0 0 15 13" fill="none" xmlns="http://www.w3.org/2000/svg">
<path d="M7.806 0.106735C7.71728 0.0375648 7.608 0 7.4955 0C7.383 0 7.27372 0.0375648 7.185 0.106735L0 5.70924L0.6215 6.49524L1.5 5.81024V11.9997C1.50053 12.2648 1.60606 12.5188 1.79348 12.7063C1.9809 12.8937 2.23495 12.9992 2.5 12.9997H12.5C12.7651 12.9992 13.0191 12.8937 13.2065 12.7063C13.3939 12.5188 13.4995 12.2648 13.5 11.9997V5.81474L14.3785 6.49974L15 5.71374L7.806 0.106735ZM8.5 11.9997H6.5V7.99974H8.5V11.9997ZM9.5 11.9997V7.99974C9.5 7.73452 9.39464 7.48017 9.20711 7.29263C9.01957 7.10509 8.76522 6.99974 8.5 6.99974H6.5C6.23478 6.99974 5.98043 7.10509 5.79289 7.29263C5.60536 7.48017 5.5 7.73452 5.5 7.99974V11.9997H2.5V5.03074L7.5 1.13574L12.5 5.03574V11.9997H9.5Z" fill="#BDBCBF"/>
</svg>
