<svg width="40" height="13" viewBox="0 0 40 13" fill="none" xmlns="http://www.w3.org/2000/svg">
<rect width="40" height="13" rx="2" fill="white"/>
<g clip-path="url(#clip0_2124_3618)">
<path d="M22.6394 3.38305C22.5779 3.2096 22.4973 3.06242 22.3238 3.05585H22.3129H22.1681H21.8894C21.8771 3.05454 21.8634 3.05322 21.8498 3.05322H21.7104C21.6968 3.05322 21.6831 3.05454 21.6708 3.05585C21.526 3.07688 21.4536 3.21617 21.399 3.37911L19.2542 9.14389C19.2542 9.22011 19.3184 9.28187 19.3976 9.28187H19.8457C20.0233 9.28187 20.1148 9.14126 20.1681 8.97175L20.5957 7.7707C20.6257 7.68791 20.7063 7.63272 20.7979 7.63272H23.1831C23.2733 7.63272 23.3539 7.68791 23.3839 7.76939L23.8293 8.98358C23.8839 9.15309 23.9796 9.2937 24.1654 9.2937H24.6339C24.7173 9.2937 24.7842 9.23193 24.7842 9.15572L22.6394 3.38305ZM20.8894 6.95073L21.9714 3.91787L23.0848 6.95073H20.8894Z" fill="#76A62D"/>
<path d="M28.9098 3.0716C28.8524 3.05058 28.5204 3.05321 28.5204 3.05321C28.2977 3.05846 28.1557 3.05321 28.0559 3.18593C28.0409 3.20564 28.03 3.22666 28.0191 3.24769L26.6898 6.01378L25.321 3.249C25.31 3.22798 25.2991 3.20695 25.2841 3.18724C25.1844 3.05452 25.0423 3.05846 24.8196 3.05452C24.8196 3.05452 24.4876 3.05189 24.4303 3.07292C24.2936 3.12285 24.3838 3.28448 24.448 3.4172L26.127 6.63928C26.2035 6.78645 26.2431 6.94808 26.2431 7.11234V9.05715C26.2431 9.18855 26.3538 9.29499 26.4904 9.29499H26.8415C26.9781 9.29499 27.0887 9.18855 27.0887 9.05715V7.12154C27.0887 6.95728 27.1283 6.79565 27.2048 6.64848L28.8906 3.41589C28.9562 3.28317 29.0464 3.12154 28.9098 3.0716Z" fill="#76A62D"/>
<path d="M35.3279 6.08079L31.2978 2.83375C31.2677 2.81009 31.224 2.81141 31.1967 2.839L30.6011 3.43559L33.8921 6.08079L30.6011 8.72599L31.1967 9.32258C31.224 9.35017 31.2677 9.35149 31.2978 9.32783L35.3279 6.08079Z" fill="#76A62D"/>
<path d="M38.2241 6.1071L34.194 2.86005C34.164 2.8364 34.1203 2.83771 34.0929 2.86531L33.4973 3.46189L36.7883 6.1071L33.4973 8.7523L34.0929 9.34888C34.1203 9.37648 34.164 9.37779 34.194 9.35414L38.2241 6.1071Z" fill="#76A62D"/>
<path d="M6.71044 3.04926H6.20224C6.09569 3.04926 6.01099 3.13204 6.01099 3.23322V9.08736C6.01099 9.1938 6.10115 9.28184 6.21317 9.28184H6.70224C6.8129 9.28184 6.90443 9.19512 6.90443 9.08736V3.23454C6.90306 3.13204 6.817 3.04926 6.71044 3.04926Z" fill="#76A62D"/>
<path d="M4.8921 8.53943H2.62297V3.23457C2.62297 3.13207 2.53691 3.0506 2.43172 3.0506H1.9686C1.86204 3.0506 1.77734 3.13338 1.77734 3.23457V8.54074V9.02563C1.77734 9.14652 1.87844 9.24377 2.00412 9.24377H2.62434H4.89346C5.00275 9.24377 5.09019 9.15967 5.09019 9.05454V8.72865C5.08882 8.62484 5.00002 8.53943 4.8921 8.53943Z" fill="#76A62D"/>
<path d="M18.5888 3.39353C18.306 3.20956 17.9153 3.07947 17.168 3.07947H15.989H15.7213C15.5492 3.07947 15.4084 3.2135 15.4084 3.38039V8.97303C15.4084 9.14386 15.5519 9.28315 15.7309 9.28315H15.9795C16.1571 9.28315 16.3019 9.14517 16.3019 8.97303V6.87185C16.5696 6.87185 17.4959 6.87185 17.6052 6.87185C17.7322 6.87185 19.3634 6.62612 19.3634 4.91784C19.362 4.17408 18.9658 3.64057 18.5888 3.39353ZM17.3087 6.22796C17.224 6.22796 16.4003 6.22796 16.4003 6.22796H16.3005V3.72336H17.0191C17.5123 3.72336 17.7705 3.80877 17.9576 3.93098C18.2076 4.09392 18.4686 4.44609 18.4686 4.93755C18.4699 6.06633 17.3934 6.22796 17.3087 6.22796Z" fill="#76A62D"/>
<path d="M14.582 9.42115C14.5465 9.39618 14.5069 9.37779 14.4645 9.36202C14.1284 9.2385 13.638 8.91129 13.3648 8.74178C13.153 8.61037 13.1858 8.50656 13.2145 8.4632C13.22 8.45663 13.2268 8.44875 13.2323 8.44217C13.2336 8.44086 13.2336 8.44086 13.2336 8.44086C13.6981 7.8929 13.9672 7.11235 13.9672 6.1268C13.9672 4.38436 13.1927 2.97174 11.0902 2.97174C9.15577 2.97174 8.22681 4.38436 8.22681 6.1268C8.22681 7.86924 8.85112 9.3607 11.0902 9.3607C11.5451 9.3607 11.9631 9.2766 12.3306 9.11366H12.332C12.4399 9.06898 12.5451 9.0703 12.6899 9.17148C13.7282 9.91129 14.2432 10.1833 14.6121 10.1833C14.7896 10.1833 14.7582 9.65768 14.7582 9.65768C14.7582 9.65768 14.7323 9.52496 14.582 9.42115ZM9.14484 6.13994C9.14484 6.136 9.14484 6.13206 9.14484 6.1268C9.14757 4.94415 9.59566 3.68922 11.0929 3.68922C12.7896 3.68922 13.0492 4.94415 13.0506 6.1268C13.0506 6.13074 13.0506 6.13468 13.0506 6.13994C13.0506 7.5473 12.5765 8.61695 11.0929 8.61695C9.38938 8.61695 9.14484 7.32654 9.14484 6.13994Z" fill="#76A62D"/>
</g>
<defs>
<clipPath id="clip0_2124_3618">
<rect width="37" height="8" fill="white" transform="translate(1.5 2.5)"/>
</clipPath>
</defs>
</svg>
