<svg width="168" height="53" viewBox="0 0 168 53" fill="none" xmlns="http://www.w3.org/2000/svg">
<g clip-path="url(#clip0_2023_1371)">
<path d="M78.0832 50.0316C78.0832 50.7063 77.8822 51.1785 77.5472 51.5157C77.1452 51.8531 76.4751 52.0554 75.4701 52.0554H72.12C71.249 52.0554 70.646 51.8531 70.177 51.5157C69.708 51.111 69.4399 50.6389 69.4399 50.0316V45.0396H71.718V49.3571C71.718 49.6944 71.785 50.0316 71.986 50.1666C72.1871 50.369 72.5221 50.4365 73.1251 50.4365H74.3981C75.0011 50.4365 75.4032 50.369 75.5371 50.1666C75.7382 49.9642 75.8051 49.6944 75.8051 49.2896V44.9722H78.0832V50.0316Z" fill="white"/>
<path d="M87.5293 49.2896V52.0554H85.2512V45.0396H87.5293V47.738H89.5394L91.5494 45.0396H93.8275L91.4825 48.5475L93.8275 52.0554H91.5494L89.5394 49.2896H87.5293Z" fill="white"/>
<path d="M107.298 49.6269L109.844 52.0554H107.298L104.752 49.6269H103.345V52.0554H101.067V45.0396H107.097C108.102 45.0396 108.772 45.242 109.174 45.5792C109.576 45.9165 109.71 46.4562 109.71 47.0634V47.6031C109.71 48.2776 109.509 48.7499 109.174 49.0872C108.772 49.4245 108.303 49.6269 107.633 49.6269H107.298ZM103.345 48.0078H106.025C106.628 48.0078 107.03 47.9403 107.164 47.738C107.365 47.5356 107.432 47.4006 107.432 47.3332C107.432 47.2658 107.365 47.0634 107.164 46.9285C107.03 46.7261 106.628 46.6586 106.025 46.6586H103.345V48.0078Z" fill="white"/>
<path d="M119.156 49.2896V52.0554H116.878V47.0634C116.878 46.7261 116.945 46.4562 117.012 46.1864C117.079 45.9165 117.28 45.7142 117.481 45.5792C117.682 45.4444 117.951 45.3094 118.286 45.1745C118.62 45.0396 119.022 45.0396 119.558 45.0396H122.842C123.377 45.0396 123.779 45.107 124.114 45.1745C124.449 45.242 124.718 45.3768 124.918 45.5118C125.12 45.6467 125.253 45.9165 125.387 46.1189C125.455 46.3888 125.522 46.6586 125.522 46.9959V52.0554H123.244V49.2896H122.573H119.156ZM123.244 47.6705C123.244 47.4682 123.244 47.3332 123.177 47.1983C123.109 47.0634 123.042 46.9285 122.975 46.8609C122.909 46.7935 122.707 46.6586 122.573 46.6586C122.372 46.5912 122.172 46.5912 121.903 46.5912H120.631C120.362 46.5912 120.094 46.5912 119.96 46.6586C119.759 46.7261 119.625 46.7935 119.558 46.8609C119.425 46.9285 119.357 47.0634 119.357 47.1983C119.29 47.3332 119.29 47.4682 119.29 47.6705H122.238H123.244Z" fill="white"/>
<path d="M132.755 52.0554V45.0396H135.033V52.0554H132.755Z" fill="white"/>
<path d="M144.413 52.0554H142.135V45.0396H144.413L148.5 48.9523V45.0396H150.778V52.0554H148.5L144.413 48.0753V52.0554Z" fill="white"/>
<path d="M160.226 49.2896C160.226 49.4921 160.226 49.6269 160.292 49.7619C160.359 49.8968 160.427 50.0318 160.494 50.0992C160.628 50.1666 160.762 50.3015 160.896 50.3015C161.096 50.369 161.298 50.369 161.566 50.369H166.524V51.988H160.561C160.025 51.988 159.622 51.9206 159.288 51.8531C158.953 51.7856 158.685 51.6507 158.483 51.4483C158.283 51.3134 158.149 51.0436 158.014 50.8412C157.881 50.6388 157.881 50.3015 157.881 49.9642V46.996C157.881 46.6587 157.948 46.3888 158.014 46.119C158.081 45.8492 158.283 45.6467 158.483 45.5119C158.685 45.3769 158.953 45.242 159.288 45.107C159.622 44.9722 160.025 44.9722 160.561 44.9722H166.524V46.5913H161.566C161.298 46.5913 161.03 46.5913 160.896 46.6587C160.694 46.7261 160.561 46.7936 160.494 46.861C160.359 46.9285 160.292 47.0634 160.292 47.1984C160.226 47.3333 160.226 47.4682 160.226 47.6705H166.591V49.2896H160.896H160.226Z" fill="white"/>
<path d="M167.663 40.25H70.175V41.127H167.663V40.25Z" fill="white"/>
<path fill-rule="evenodd" clip-rule="evenodd" d="M100.796 25.8137C100.863 25.7462 100.998 25.7462 101.065 25.6788C101.266 25.5438 101.4 25.4089 101.534 25.1391L101.601 25.0041C101.734 24.6668 101.869 24.2621 102.003 23.7899L102.271 23.1153H102.204V23.0479L91.0142 23.1153H89.8751L89.0041 25.8137H93.2923L90.2772 34.651L90.0762 35.1907H93.4263L96.1734 27.2978L96.7094 25.8137H100.596H100.796ZM108.368 23.1153H114.599C116.944 23.1827 117.212 24.5994 116.743 26.1509L113.594 35.2582H110.244L111.852 30.536H106.157L104.549 35.2582H101.199L104.415 26.0161C104.884 24.5994 106.425 23.1153 108.368 23.1153ZM113.058 27.0279C113.259 26.3534 112.79 25.8137 112.053 25.7462H109.172C108.368 25.7462 107.631 26.3534 107.363 27.0279L107.095 27.7026H112.79L113.058 27.0279ZM143.074 23.1153H149.306C151.651 23.1827 151.919 24.5994 151.45 26.1509L148.301 35.2582H144.95L146.559 30.536H140.863L139.255 35.2582H135.905L139.122 26.0161C139.591 24.5994 141.132 23.1153 143.074 23.1153ZM147.765 27.0279C147.965 26.3534 147.497 25.8137 146.76 25.7462H143.879C143.074 25.7462 142.337 26.3534 142.07 27.0279L141.802 27.7026H147.497L147.765 27.0279ZM123.979 23.1153C122.036 23.1153 120.495 24.5994 120.026 25.9486L116.81 35.1907H120.16L120.696 33.6391L121.769 30.4684L122.706 27.77L122.974 27.0955C123.243 26.4208 123.979 25.8137 124.784 25.8137H126.258L123.041 35.1907H126.391L129.607 25.8137H131.014C131.751 25.8137 132.22 26.4208 132.02 27.0955L131.751 27.8375L130.814 30.536L129.406 34.7185L129.205 35.2582H132.555L135.705 26.1509C136.174 24.6668 135.905 23.1827 133.56 23.1153H123.979ZM77.4798 23.1153H83.711C86.0561 23.1827 86.3241 24.5994 85.855 26.1509L82.7059 35.2582H79.3559L80.9639 30.536H75.2688L73.6607 35.2582H70.3105L73.4596 25.9486C73.9957 24.5994 75.4697 23.1153 77.4798 23.1153ZM82.17 27.0279C82.3709 26.3534 81.902 25.8137 81.1649 25.7462H78.2838C77.4798 25.7462 76.7428 26.3534 76.4748 27.0279L76.2068 27.7026H81.902L82.17 27.0279ZM151.517 35.1907H154.867L157.279 28.1748L160.562 35.1232H163.846L168 23.0479H164.649L162.238 29.9963L158.955 23.0479H155.604L151.517 35.1907Z" fill="white"/>
<path d="M74.3933 0.164804C74.0586 0.0974092 70.7117 0.0974092 70.1762 0.164804C69.6408 0.164804 69.4399 0.43438 69.4399 0.973533V16.5415C69.4399 17.2155 69.9085 17.2155 70.444 17.2829C70.7787 17.2829 73.9246 17.2829 74.3263 17.2829C75.0626 17.2155 75.1295 16.8112 75.1295 16.2046C75.1295 15.0589 75.1295 2.05184 75.1295 0.973533C75.0626 0.43438 74.9287 0.164804 74.3933 0.164804Z" fill="#ACABAE"/>
<path d="M98.221 15.3958C99.292 13.9132 99.4928 10.8805 96.6815 9.33039C95.0751 8.45427 86.775 5.7585 85.0346 5.01717C84.566 4.81499 84.4322 4.61281 84.4991 4.34323C84.566 4.00625 85.0346 4.00625 85.2354 4.00625C85.4362 4.00625 87.1096 4.00625 97.4847 4.07365C98.0872 4.07365 98.3549 3.93887 98.4219 3.33232C98.4888 3.06274 98.4219 1.24311 98.4219 1.10832C98.4219 0.434374 98.288 0.164798 97.5517 0.164798C96.6815 0.164798 86.5072 0.0974035 83.3612 0.232191C79.7466 0.366979 78.7426 2.05183 78.4749 3.80408C78.2071 5.48892 78.8764 7.10638 80.4829 8.11729C82.0225 9.06082 87.3104 10.6783 92.1968 12.498C93 12.7675 93.0669 13.0371 92.9331 13.3066C92.8661 13.5088 92.4645 13.5088 91.996 13.5088C90.7911 13.5088 80.4159 13.374 79.7466 13.374C79.0103 13.374 78.8764 13.6437 78.8095 14.385C78.8095 14.5872 78.8095 16.0024 78.8095 16.2046C78.8095 16.9459 78.9434 17.2155 79.6797 17.2155C84.0975 17.2828 91.6613 17.2828 93.2677 17.2155C95.8114 17.1481 97.217 16.6764 98.221 15.3958Z" fill="#ACABAE"/>
<path d="M144.81 2.32134C144.141 0.771276 142.868 0.16473 140.124 0.0973358C138.049 0.0299416 126.202 0.0973358 125.934 0.0973358C125.131 0.0973358 125.064 0.434306 125.064 1.17564C125.064 1.37782 125.064 3.06268 125.064 3.33226C125.131 3.9388 125.532 4.00619 125.934 4.00619C126.202 4.00619 137.648 3.9388 138.451 3.9388C138.852 3.9388 138.986 4.07359 138.986 4.27577C138.986 4.47795 138.919 4.61274 138.584 4.74753C135.037 6.36498 129.147 8.92595 127.407 9.80208C124.863 11.0826 124.261 12.4979 124.394 13.9805C124.528 15.5979 125.532 17.0806 129.147 17.148C132.293 17.2828 141.397 17.148 143.673 17.0806C144.476 17.0806 144.542 16.7436 144.609 16.2045C144.609 15.9349 144.609 14.6544 144.609 14.5197C144.609 13.5087 144.476 13.2392 143.605 13.2392C142.936 13.2392 133.967 13.4414 131.489 13.374C131.088 13.374 130.954 13.1718 131.088 12.9022C131.155 12.7674 131.423 12.6327 131.958 12.363C134.1 11.4195 139.924 8.92596 142.868 7.17372C144.676 6.16281 145.68 4.34316 144.81 2.32134Z" fill="#ACABAE"/>
<path d="M120.713 0.0974205C120.177 0.0300265 116.964 0.0300265 116.629 0.0974205C116.228 0.164815 115.893 0.232208 115.893 0.973544C115.893 1.4453 115.893 8.72386 115.893 10.0717C115.893 11.8914 115.626 13.1045 113.417 13.2392C112.145 13.3067 111.208 13.3067 110.003 13.2392C107.928 13.0371 107.526 12.3632 107.526 9.80216C107.526 8.2521 107.526 1.71488 107.526 1.10833C107.526 0.501785 107.459 0.164815 106.723 0.0974205C106.187 0.0974205 103.175 0.0974205 102.841 0.0974205C102.439 0.0974205 102.037 0.232208 102.037 0.973544C102.037 1.4453 101.97 6.83682 102.037 11.2848C102.104 17.0807 106.054 16.946 107.861 17.0807C108.999 17.1482 113.952 17.2155 116.161 17.0133C120.177 16.7438 121.315 14.5871 121.382 11.6892C121.448 9.73477 121.516 2.7258 121.448 1.04094C121.448 0.434391 121.315 0.164815 120.713 0.0974205Z" fill="#ACABAE"/>
<path d="M167.971 0.97347C167.971 0.366924 167.838 0.097347 167.235 0.0299529C166.632 -0.0374411 163.621 0.0299529 163.353 0.0299529C162.683 0.097347 162.549 0.299529 162.549 0.906076C162.549 1.37783 162.549 9.12816 162.483 10.5434C162.416 12.5653 161.746 12.8348 160.81 13.1044C159.872 13.3739 156.726 13.3066 156.324 13.2392C155.12 13.1044 154.316 12.5653 154.316 10.6108C154.316 8.6564 154.316 1.64741 154.316 0.97347C154.316 0.366924 154.048 0.164741 153.513 0.097347C153.045 0.097347 150.166 0.0299529 149.496 0.097347C148.693 0.164741 148.693 0.501712 148.626 1.10826C148.626 2.32136 148.56 10.7456 148.693 12.1609C148.961 15.4631 150.568 16.8785 153.446 17.0807C156.056 17.2829 162.281 17.3503 164.156 16.8785C167.168 16.1371 167.838 13.7783 167.971 10.7456C168.038 9.12816 167.971 1.71481 167.971 0.97347Z" fill="#ACABAE"/>
<mask id="mask0_2023_1371" style="mask-type:luminance" maskUnits="userSpaceOnUse" x="0" y="0" width="59" height="52">
<path d="M58.24 0H0V51.8723H58.24V0Z" fill="white"/>
</mask>
<g mask="url(#mask0_2023_1371)">
<path d="M0.851315 8.21439C1.45225 6.38897 2.40371 4.81708 3.70572 3.60013C5.05782 2.38318 6.76044 1.47048 8.96385 0.862003C11.1673 0.304237 13.8214 0 17.0264 0H41.0634C44.2684 0 46.9726 0.304237 49.1759 0.963416C51.3794 1.57189 53.1321 2.53531 54.4341 3.75225C55.7862 4.9692 56.7376 6.54109 57.2886 8.41721C57.8894 10.2933 58.1399 12.4737 58.1399 15.009V17.4936C58.1399 17.7471 57.9896 17.95 57.7893 18.0513L44.4687 23.3755C44.0681 23.5276 43.6674 23.2234 43.6674 22.8177V19.8768C43.6674 18.6091 43.5173 17.4936 43.2668 16.5301C42.9664 15.5668 42.5156 14.7048 41.8146 13.9949C41.1135 13.285 40.2121 12.7272 39.0603 12.3723C37.9085 12.0174 36.4563 11.8145 34.7036 11.8145H23.4362C21.6835 11.8145 20.2312 12.0174 19.0795 12.3723C17.9277 12.7272 17.0264 13.285 16.3252 13.9949C15.6241 14.7048 15.1234 15.5668 14.8729 16.5301C14.5725 17.4936 14.4724 18.6091 14.4724 19.8768V38.4353C14.4724 38.8409 14.8729 39.1451 15.2736 38.993L57.4387 23.2234C57.8394 23.0712 58.24 23.3755 58.24 23.7812V51.3146C58.24 51.6188 57.9896 51.9231 57.6391 51.9231H44.2184C43.9179 51.9231 43.6174 51.6695 43.6174 51.3146V42.1874C43.6174 41.7818 43.2168 41.4776 42.8662 41.6297L16.826 50.909C15.2736 51.5173 13.6211 51.8723 11.9685 51.8723H0.600928C0.300465 51.8723 0 51.6188 0 51.2639V14.654C0 12.2202 0.300465 10.0905 0.851315 8.21439Z" fill="#D1210F"/>
</g>
</g>
<defs>
<clipPath id="clip0_2023_1371">
<rect width="168" height="53" fill="white"/>
</clipPath>
</defs>
</svg>
