<svg width="168" height="53" viewBox="0 0 168 53" fill="none" xmlns="http://www.w3.org/2000/svg">
<g clip-path="url(#clip0_2011_2597)">
<path d="M78.0832 50.0318C78.0832 50.7065 77.8822 51.1786 77.5472 51.5159C77.1452 51.8533 76.4751 52.0556 75.4701 52.0556H72.12C71.249 52.0556 70.646 51.8533 70.177 51.5159C69.708 51.1112 69.4399 50.639 69.4399 50.0318V45.0397H71.718V49.3572C71.718 49.6945 71.785 50.0318 71.986 50.1668C72.1871 50.3692 72.5221 50.4366 73.1251 50.4366H74.3981C75.0011 50.4366 75.4032 50.3692 75.5371 50.1668C75.7382 49.9643 75.8051 49.6945 75.8051 49.2898V44.9723H78.0832V50.0318Z" fill="black"/>
<path d="M87.5293 49.2898V52.0556H85.2512V45.0397H87.5293V47.7382H89.5394L91.5494 45.0397H93.8275L91.4825 48.5477L93.8275 52.0556H91.5494L89.5394 49.2898H87.5293Z" fill="black"/>
<path d="M107.298 49.6271L109.844 52.0556H107.298L104.752 49.6271H103.345V52.0556H101.067V45.0397H107.097C108.102 45.0397 108.772 45.2421 109.174 45.5794C109.576 45.9167 109.71 46.4564 109.71 47.0635V47.6032C109.71 48.2778 109.509 48.7501 109.174 49.0874C108.772 49.4246 108.303 49.6271 107.633 49.6271H107.298ZM103.345 48.008H106.025C106.628 48.008 107.03 47.9405 107.164 47.7382C107.365 47.5358 107.432 47.4008 107.432 47.3334C107.432 47.266 107.365 47.0635 107.164 46.9287C107.03 46.7263 106.628 46.6588 106.025 46.6588H103.345V48.008Z" fill="black"/>
<path d="M119.156 49.2898V52.0556H116.878V47.0635C116.878 46.7263 116.945 46.4564 117.012 46.1866C117.079 45.9167 117.28 45.7144 117.481 45.5794C117.682 45.4446 117.951 45.3096 118.286 45.1747C118.62 45.0397 119.022 45.0397 119.558 45.0397H122.842C123.377 45.0397 123.779 45.1072 124.114 45.1747C124.449 45.2422 124.718 45.377 124.918 45.512C125.12 45.6469 125.253 45.9167 125.387 46.1191C125.455 46.389 125.522 46.6588 125.522 46.9961V52.0556H123.244V49.2898H122.573H119.156ZM123.244 47.6707C123.244 47.4684 123.244 47.3334 123.177 47.1985C123.109 47.0635 123.042 46.9287 122.975 46.8611C122.909 46.7937 122.707 46.6588 122.573 46.6588C122.372 46.5914 122.172 46.5914 121.903 46.5914H120.631C120.362 46.5914 120.094 46.5914 119.96 46.6588C119.759 46.7263 119.625 46.7937 119.558 46.8611C119.425 46.9287 119.357 47.0635 119.357 47.1985C119.29 47.3334 119.29 47.4684 119.29 47.6707H122.238H123.244Z" fill="black"/>
<path d="M132.755 52.0556V45.0397H135.033V52.0556H132.755Z" fill="black"/>
<path d="M144.413 52.0556H142.135V45.0397H144.413L148.5 48.9525V45.0397H150.778V52.0556H148.5L144.413 48.0755V52.0556Z" fill="black"/>
<path d="M160.226 49.2898C160.226 49.4922 160.226 49.6271 160.292 49.762C160.359 49.8969 160.427 50.0319 160.494 50.0993C160.628 50.1668 160.762 50.3016 160.896 50.3016C161.096 50.3692 161.298 50.3692 161.566 50.3692H166.524V51.9882H160.561C160.025 51.9882 159.622 51.9207 159.288 51.8533C158.953 51.7857 158.685 51.6509 158.483 51.4485C158.283 51.3136 158.149 51.0437 158.014 50.8413C157.881 50.6389 157.881 50.3016 157.881 49.9643V46.9961C157.881 46.6588 157.948 46.389 158.014 46.1191C158.081 45.8493 158.283 45.6469 158.483 45.512C158.685 45.377 158.953 45.2422 159.288 45.1072C159.622 44.9723 160.025 44.9723 160.561 44.9723H166.524V46.5914H161.566C161.298 46.5914 161.03 46.5914 160.896 46.6588C160.694 46.7263 160.561 46.7937 160.494 46.8611C160.359 46.9287 160.292 47.0636 160.292 47.1985C160.226 47.3334 160.226 47.4684 160.226 47.6707H166.591V49.2898H160.896H160.226Z" fill="black"/>
<path d="M167.663 40.25H70.175V41.127H167.663V40.25Z" fill="black"/>
<path fill-rule="evenodd" clip-rule="evenodd" d="M100.796 25.8135C100.863 25.746 100.998 25.746 101.065 25.6786C101.266 25.5436 101.4 25.4088 101.534 25.1389L101.601 25.0039C101.734 24.6666 101.869 24.2619 102.003 23.7897L102.271 23.1151H102.204V23.0477L91.0142 23.1151H89.8751L89.0041 25.8135H93.2923L90.2772 34.6508L90.0762 35.1905H93.4263L96.1734 27.2976L96.7094 25.8135H100.596H100.796ZM108.368 23.1151H114.599C116.944 23.1825 117.212 24.5992 116.743 26.1508L113.594 35.258H110.244L111.852 30.5358H106.157L104.549 35.258H101.199L104.415 26.0159C104.884 24.5992 106.425 23.1151 108.368 23.1151ZM113.058 27.0277C113.259 26.3532 112.79 25.8135 112.053 25.746H109.172C108.368 25.746 107.631 26.3532 107.363 27.0277L107.095 27.7024H112.79L113.058 27.0277ZM143.074 23.1151H149.306C151.651 23.1825 151.919 24.5992 151.45 26.1508L148.301 35.258H144.95L146.559 30.5358H140.863L139.255 35.258H135.905L139.122 26.0159C139.591 24.5992 141.132 23.1151 143.074 23.1151ZM147.765 27.0277C147.965 26.3532 147.497 25.8135 146.76 25.746H143.879C143.074 25.746 142.337 26.3532 142.07 27.0277L141.802 27.7024H147.497L147.765 27.0277ZM123.979 23.1151C122.036 23.1151 120.495 24.5992 120.026 25.9485L116.81 35.1905H120.16L120.696 33.6389L121.769 30.4682L122.706 27.7699L122.974 27.0953C123.243 26.4206 123.979 25.8135 124.784 25.8135H126.258L123.041 35.1905H126.391L129.607 25.8135H131.014C131.751 25.8135 132.22 26.4206 132.02 27.0953L131.751 27.8373L130.814 30.5358L129.406 34.7183L129.205 35.258H132.555L135.705 26.1508C136.174 24.6666 135.905 23.1825 133.56 23.1151H123.979ZM77.4798 23.1151H83.711C86.0561 23.1825 86.3241 24.5992 85.855 26.1508L82.7059 35.258H79.3559L80.9639 30.5358H75.2688L73.6607 35.258H70.3105L73.4596 25.9485C73.9957 24.5992 75.4697 23.1151 77.4798 23.1151ZM82.17 27.0277C82.3709 26.3532 81.902 25.8135 81.1649 25.746H78.2838C77.4798 25.746 76.7428 26.3532 76.4748 27.0277L76.2068 27.7024H81.902L82.17 27.0277ZM151.517 35.1905H154.867L157.279 28.1746L160.562 35.123H163.846L168 23.0477H164.649L162.238 29.9961L158.955 23.0477H155.604L151.517 35.1905Z" fill="black"/>
<path d="M74.3933 0.164796C74.0586 0.0974016 70.7117 0.0974016 70.1762 0.164796C69.6408 0.164796 69.4399 0.434372 69.4399 0.973525V16.5415C69.4399 17.2155 69.9085 17.2155 70.444 17.2828C70.7787 17.2828 73.9246 17.2828 74.3263 17.2828C75.0626 17.2155 75.1295 16.8111 75.1295 16.2046C75.1295 15.0589 75.1295 2.05183 75.1295 0.973525C75.0626 0.434372 74.9287 0.164796 74.3933 0.164796Z" fill="#ACABAE"/>
<path d="M98.221 15.3957C99.292 13.9131 99.4928 10.8803 96.6815 9.33028C95.0751 8.45417 86.775 5.7584 85.0346 5.01706C84.566 4.81488 84.4322 4.6127 84.4991 4.34313C84.566 4.00615 85.0346 4.00615 85.2354 4.00615C85.4362 4.00615 87.1096 4.00615 97.4847 4.07355C98.0872 4.07355 98.3549 3.93876 98.4219 3.33221C98.4888 3.06263 98.4219 1.243 98.4219 1.10821C98.4219 0.434267 98.288 0.164691 97.5517 0.164691C96.6815 0.164691 86.5072 0.0972967 83.3612 0.232085C79.7466 0.366873 78.7426 2.05172 78.4749 3.80397C78.2071 5.48882 78.8764 7.10628 80.4829 8.11719C82.0225 9.06071 87.3104 10.6782 92.1968 12.4979C93 12.7674 93.0669 13.037 92.9331 13.3065C92.8661 13.5087 92.4645 13.5087 91.996 13.5087C90.7911 13.5087 80.4159 13.3739 79.7466 13.3739C79.0103 13.3739 78.8764 13.6436 78.8095 14.3849C78.8095 14.5871 78.8095 16.0023 78.8095 16.2045C78.8095 16.9458 78.9434 17.2154 79.6797 17.2154C84.0975 17.2827 91.6613 17.2827 93.2677 17.2154C95.8114 17.148 97.217 16.6763 98.221 15.3957Z" fill="#ACABAE"/>
<path d="M144.81 2.32141C144.141 0.771345 142.868 0.164798 140.124 0.0974044C138.049 0.0300103 126.202 0.0974044 125.934 0.0974044C125.131 0.0974044 125.064 0.434375 125.064 1.17571C125.064 1.37789 125.064 3.06275 125.064 3.33233C125.131 3.93887 125.532 4.00626 125.934 4.00626C126.202 4.00626 137.648 3.93887 138.451 3.93887C138.852 3.93887 138.986 4.07366 138.986 4.27584C138.986 4.47802 138.919 4.61281 138.584 4.74759C135.037 6.36505 129.147 8.92602 127.407 9.80215C124.863 11.0826 124.261 12.498 124.394 13.9806C124.528 15.598 125.532 17.0807 129.147 17.1481C132.293 17.2829 141.397 17.1481 143.673 17.0807C144.476 17.0807 144.542 16.7437 144.609 16.2046C144.609 15.935 144.609 14.6545 144.609 14.5197C144.609 13.5088 144.476 13.2393 143.605 13.2393C142.936 13.2393 133.967 13.4415 131.489 13.374C131.088 13.374 130.954 13.1719 131.088 12.9022C131.155 12.7675 131.423 12.6327 131.958 12.3631C134.1 11.4196 139.924 8.92602 142.868 7.17379C144.676 6.16287 145.68 4.34323 144.81 2.32141Z" fill="#ACABAE"/>
<path d="M120.713 0.0973442C120.177 0.0299502 116.964 0.0299502 116.629 0.0973442C116.228 0.164738 115.893 0.232132 115.893 0.973468C115.893 1.44523 115.893 8.72379 115.893 10.0717C115.893 11.8913 115.626 13.1044 113.417 13.2392C112.145 13.3066 111.208 13.3066 110.003 13.2392C107.928 13.037 107.526 12.3631 107.526 9.80209C107.526 8.25203 107.526 1.71481 107.526 1.10826C107.526 0.501709 107.459 0.164738 106.723 0.0973442C106.187 0.0973442 103.175 0.0973442 102.841 0.0973442C102.439 0.0973442 102.037 0.232132 102.037 0.973468C102.037 1.44523 101.97 6.83675 102.037 11.2847C102.104 17.0807 106.054 16.9459 107.861 17.0807C108.999 17.1481 113.952 17.2154 116.161 17.0132C120.177 16.7437 121.315 14.5871 121.382 11.6891C121.448 9.7347 121.516 2.72572 121.448 1.04086C121.448 0.434314 121.315 0.164738 120.713 0.0973442Z" fill="#ACABAE"/>
<path d="M167.971 0.97347C167.971 0.366924 167.838 0.097347 167.235 0.0299529C166.632 -0.0374411 163.621 0.0299529 163.353 0.0299529C162.683 0.097347 162.549 0.299529 162.549 0.906076C162.549 1.37783 162.549 9.12816 162.483 10.5434C162.416 12.5653 161.746 12.8348 160.81 13.1044C159.872 13.3739 156.726 13.3066 156.324 13.2392C155.12 13.1044 154.316 12.5653 154.316 10.6108C154.316 8.6564 154.316 1.64741 154.316 0.97347C154.316 0.366924 154.048 0.164741 153.513 0.097347C153.045 0.097347 150.166 0.0299529 149.496 0.097347C148.693 0.164741 148.693 0.501712 148.626 1.10826C148.626 2.32136 148.56 10.7456 148.693 12.1609C148.961 15.4631 150.568 16.8785 153.446 17.0807C156.056 17.2829 162.281 17.3503 164.156 16.8785C167.168 16.1371 167.838 13.7783 167.971 10.7456C168.038 9.12816 167.971 1.71481 167.971 0.97347Z" fill="#ACABAE"/>
<mask id="mask0_2011_2597" style="mask-type:luminance" maskUnits="userSpaceOnUse" x="0" y="0" width="59" height="52">
<path d="M58.24 0H0V51.8723H58.24V0Z" fill="white"/>
</mask>
<g mask="url(#mask0_2011_2597)">
<path d="M0.851315 8.21439C1.45225 6.38897 2.40371 4.81708 3.70572 3.60013C5.05782 2.38318 6.76044 1.47048 8.96385 0.862003C11.1673 0.304237 13.8214 0 17.0264 0H41.0634C44.2684 0 46.9726 0.304237 49.1759 0.963416C51.3794 1.57189 53.1321 2.53531 54.4341 3.75225C55.7862 4.9692 56.7376 6.54109 57.2886 8.41721C57.8894 10.2933 58.1399 12.4737 58.1399 15.009V17.4936C58.1399 17.7471 57.9896 17.95 57.7893 18.0513L44.4687 23.3755C44.0681 23.5276 43.6674 23.2234 43.6674 22.8177V19.8768C43.6674 18.6091 43.5173 17.4936 43.2668 16.5301C42.9664 15.5668 42.5156 14.7048 41.8146 13.9949C41.1135 13.285 40.2121 12.7272 39.0603 12.3723C37.9085 12.0174 36.4563 11.8145 34.7036 11.8145H23.4362C21.6835 11.8145 20.2312 12.0174 19.0795 12.3723C17.9277 12.7272 17.0264 13.285 16.3252 13.9949C15.6241 14.7048 15.1234 15.5668 14.8729 16.5301C14.5725 17.4936 14.4724 18.6091 14.4724 19.8768V38.4353C14.4724 38.8409 14.8729 39.1451 15.2736 38.993L57.4387 23.2234C57.8394 23.0712 58.24 23.3755 58.24 23.7812V51.3146C58.24 51.6188 57.9896 51.9231 57.6391 51.9231H44.2184C43.9179 51.9231 43.6174 51.6695 43.6174 51.3146V42.1874C43.6174 41.7818 43.2168 41.4776 42.8662 41.6297L16.826 50.909C15.2736 51.5173 13.6211 51.8723 11.9685 51.8723H0.600928C0.300465 51.8723 0 51.6188 0 51.2639V14.654C0 12.2202 0.300465 10.0905 0.851315 8.21439Z" fill="#D1210F"/>
</g>
</g>
<defs>
<clipPath id="clip0_2011_2597">
<rect width="168" height="53" fill="white"/>
</clipPath>
</defs>
</svg>
