<svg width="40" height="20" viewBox="0 0 40 20" fill="none" xmlns="http://www.w3.org/2000/svg">
<rect width="40" height="20" rx="2" fill="white"/>
<path d="M13.2679 18.9709V18.0883C13.2679 17.7506 13.0149 17.5296 12.5807 17.5296C12.3635 17.5296 12.1274 17.5878 11.9651 17.7798C11.8386 17.6187 11.6573 17.5296 11.3854 17.5296C11.2041 17.5296 11.0228 17.5741 10.8795 17.7352V17.5587H10.5V18.9709H10.8795V18.1911C10.8795 17.9409 11.0418 17.8226 11.2947 17.8226C11.5477 17.8226 11.6742 17.9546 11.6742 18.1911V18.9709H12.0536V18.1911C12.0536 17.9409 12.2349 17.8226 12.4689 17.8226C12.7219 17.8226 12.8484 17.9546 12.8484 18.1911V18.9709H13.2679ZM18.8964 17.5587H18.2809V17.132H17.9014V17.5587H17.5578V17.838H17.9014V18.4859C17.9014 18.8098 18.0637 19 18.498 19C18.6603 19 18.8416 18.9554 18.9681 18.8972L18.8585 18.6315C18.7489 18.6898 18.6224 18.7052 18.5317 18.7052C18.3504 18.7052 18.2788 18.6161 18.2788 18.4704V17.838H18.8943V17.5587H18.8964ZM22.1176 17.5278C21.9004 17.5278 21.755 17.617 21.6643 17.7335V17.557H21.2849V18.9692H21.6643V18.174C21.6643 17.9392 21.7908 17.8055 22.0269 17.8055C22.0986 17.8055 22.1892 17.8209 22.263 17.8346L22.3726 17.5398C22.2967 17.5278 22.1892 17.5278 22.1176 17.5278ZM17.25 17.6752C17.0687 17.5724 16.8158 17.5278 16.5438 17.5278C16.1096 17.5278 15.8208 17.7044 15.8208 17.9837C15.8208 18.2185 16.0379 18.3522 16.4173 18.395L16.5986 18.4105C16.7968 18.4396 16.9064 18.4841 16.9064 18.5578C16.9064 18.6607 16.761 18.7344 16.508 18.7344C16.255 18.7344 16.0548 18.6607 15.9283 18.587L15.747 18.8218C15.9451 18.94 16.2171 18.9983 16.489 18.9983C16.995 18.9983 17.2859 18.8063 17.2859 18.5424C17.2859 18.2922 17.0498 18.1602 16.6893 18.1157L16.508 18.1003C16.3457 18.0848 16.2192 18.0557 16.2192 17.9683C16.2192 17.8655 16.3457 17.8072 16.5459 17.8072C16.7631 17.8072 16.9802 17.8809 17.0898 17.9254L17.25 17.6752ZM27.3456 17.5278C27.1284 17.5278 26.983 17.617 26.8923 17.7335V17.557H26.5129V18.9692H26.8923V18.174C26.8923 17.9392 27.0188 17.8055 27.2549 17.8055C27.3266 17.8055 27.4172 17.8209 27.491 17.8346L27.6006 17.5433C27.5268 17.5278 27.4193 17.5278 27.3456 17.5278ZM22.497 18.2648C22.497 18.6915 22.8596 19 23.4203 19C23.6733 19 23.8546 18.9554 24.0359 18.8389L23.8546 18.5887C23.7091 18.6778 23.5658 18.7207 23.4014 18.7207C23.0936 18.7207 22.8765 18.5441 22.8765 18.2648C22.8765 17.9991 23.0936 17.8226 23.4014 17.8089C23.5637 17.8089 23.7091 17.8535 23.8546 17.9409L24.0359 17.6907C23.8546 17.5724 23.6733 17.5296 23.4203 17.5296C22.8596 17.5278 22.497 17.838 22.497 18.2648ZM26.0069 18.2648V17.5587H25.6275V17.7352C25.501 17.6033 25.3197 17.5296 25.0836 17.5296C24.5945 17.5296 24.2151 17.838 24.2151 18.2648C24.2151 18.6915 24.5945 19 25.0836 19C25.3366 19 25.5179 18.9263 25.6275 18.7943V18.9709H26.0069V18.2648ZM24.6135 18.2648C24.6135 18.0146 24.8117 17.8089 25.1384 17.8089C25.4462 17.8089 25.6633 18.0009 25.6633 18.2648C25.6633 18.515 25.4462 18.7207 25.1384 18.7207C24.8138 18.7052 24.6135 18.5133 24.6135 18.2648ZM20.0727 17.5278C19.5668 17.5278 19.2042 17.8226 19.2042 18.2631C19.2042 18.7052 19.5668 18.9983 20.0917 18.9983C20.3447 18.9983 20.5976 18.94 20.7979 18.8063L20.6166 18.5853C20.4712 18.6744 20.2899 18.7326 20.1107 18.7326C19.8746 18.7326 19.6406 18.6435 19.5858 18.395H20.8696C20.8696 18.3505 20.8696 18.3213 20.8696 18.2768C20.8864 17.8226 20.5597 17.5278 20.0727 17.5278ZM20.0727 17.7935C20.3088 17.7935 20.4712 17.9117 20.507 18.1311H19.6026C19.6385 17.9409 19.8008 17.7935 20.0727 17.7935ZM29.5 18.2648V17H29.1205V17.7352C28.9941 17.6033 28.8128 17.5296 28.5767 17.5296C28.0876 17.5296 27.7081 17.838 27.7081 18.2648C27.7081 18.6915 28.0876 19 28.5767 19C28.8296 19 29.0109 18.9263 29.1205 18.7943V18.9709H29.5V18.2648ZM28.1066 18.2648C28.1066 18.0146 28.3047 17.8089 28.6315 17.8089C28.9393 17.8089 29.1564 18.0009 29.1564 18.2648C29.1564 18.515 28.9393 18.7207 28.6315 18.7207C28.3047 18.7052 28.1066 18.5133 28.1066 18.2648ZM15.4034 18.2648V17.5587H15.0239V17.7352C14.8974 17.6033 14.7161 17.5296 14.48 17.5296C13.991 17.5296 13.6115 17.838 13.6115 18.2648C13.6115 18.6915 13.991 19 14.48 19C14.733 19 14.9143 18.9263 15.0239 18.7943V18.9709H15.4034V18.2648ZM13.9931 18.2648C13.9931 18.0146 14.1912 17.8089 14.518 17.8089C14.8258 17.8089 15.0429 18.0009 15.0429 18.2648C15.0429 18.515 14.8258 18.7207 14.518 18.7207C14.1912 18.7052 13.9931 18.5133 13.9931 18.2648Z" fill="black"/>
<path d="M22.788 4.36292H17.1953V14.3794H22.788V4.36292Z" fill="#FF5A00"/>
<path d="M17.5677 9.37112C17.5677 7.33607 18.5274 5.52989 20.0001 4.36288C18.9163 3.5134 17.5491 3 16.0578 3C12.5252 3 9.66675 5.84948 9.66675 9.37112C9.66675 12.8928 12.5252 15.7422 16.0578 15.7422C17.5491 15.7422 18.9163 15.2288 20.0001 14.3794C18.5253 13.2288 17.5677 11.4062 17.5677 9.37112Z" fill="#EB001B"/>
<path d="M30.3333 9.37112C30.3333 12.8928 27.4749 15.7422 23.9422 15.7422C22.451 15.7422 21.0838 15.2288 20 14.3794C21.4913 13.2103 22.4323 11.4062 22.4323 9.37112C22.4323 7.33607 21.4726 5.52989 20 4.36288C21.0817 3.5134 22.4489 3 23.9401 3C27.4749 3 30.3333 5.86803 30.3333 9.37112Z" fill="#F79E1B"/>
</svg>
