<svg width="52" height="13" viewBox="0 0 52 13" fill="none" xmlns="http://www.w3.org/2000/svg">
<rect width="52" height="13" rx="2" fill="white"/>
<g clip-path="url(#clip0_2124_3634)">
<path d="M11.0164 7.27394V3.99115C11.0164 3.05994 10.5413 2.61786 9.74357 2.61786C9.08027 2.61786 8.50663 3.03173 8.25565 3.44561C8.09432 2.92828 7.69095 2.61786 7.05456 2.61786C6.39126 2.61786 5.81762 3.05053 5.63833 3.32332V2.73073H4.5V7.27394H5.63833V4.2169C5.80864 3.96294 6.14027 3.68077 6.53466 3.68077C7.00078 3.68077 7.18003 3.98178 7.18003 4.40503V7.27394H8.32734V4.20753C8.48867 3.96294 8.82034 3.68077 9.22367 3.68077C9.6898 3.68077 9.86905 3.98178 9.86905 4.40503V7.27394H11.0164Z" fill="black"/>
<path d="M14.1407 7.38682C15.5748 7.38682 16.4353 6.29569 16.4353 4.99765C16.4353 3.70898 15.5748 2.61786 14.1407 2.61786C12.7155 2.61786 11.855 3.70898 11.855 4.99765C11.855 6.29569 12.7155 7.38682 14.1407 7.38682ZM14.1407 6.3239C13.4325 6.3239 13.0381 5.71252 13.0381 4.99765C13.0381 4.29215 13.4325 3.68077 14.1407 3.68077C14.8488 3.68077 15.2521 4.29215 15.2521 4.99765C15.2521 5.71252 14.8488 6.3239 14.1407 6.3239Z" fill="black"/>
<path d="M21.3402 7.27394V4.0664C21.3402 3.18223 20.8831 2.61786 19.9329 2.61786C19.2249 2.61786 18.696 2.97528 18.4182 3.32332V2.73073H17.2798V7.27394H18.4182V4.2169C18.6064 3.94415 18.9559 3.68077 19.4041 3.68077C19.8881 3.68077 20.2019 3.89711 20.2019 4.52732V7.27394H21.3402Z" fill="black"/>
<path d="M24.4783 7.38682C25.9124 7.38682 26.7728 6.29569 26.7728 4.99765C26.7728 3.70898 25.9124 2.61786 24.4783 2.61786C23.0531 2.61786 22.1926 3.70898 22.1926 4.99765C22.1926 6.29569 23.0531 7.38682 24.4783 7.38682ZM24.4783 6.3239C23.7702 6.3239 23.3758 5.71252 23.3758 4.99765C23.3758 4.29215 23.7702 3.68077 24.4783 3.68077C25.1865 3.68077 25.5898 4.29215 25.5898 4.99765C25.5898 5.71252 25.1865 6.3239 24.4783 6.3239Z" fill="black"/>
<path d="M28.7561 5.816V4.20754C28.944 3.90654 29.3655 3.68079 29.7327 3.68079C30.3962 3.68079 30.8355 4.21692 30.8355 5.00704C30.8355 5.79717 30.3962 6.32392 29.7327 6.32392C29.3655 6.32392 28.944 6.10758 28.7561 5.816ZM28.7561 7.27396V6.69075C29.0964 7.14225 29.5716 7.38683 30.0912 7.38683C31.1849 7.38683 32.0095 6.52146 32.0095 5.00704C32.0095 3.52088 31.194 2.61788 30.0912 2.61788C29.5807 2.61788 29.0964 2.85304 28.7561 3.31392V1H27.6177V7.27396H28.7561Z" fill="black"/>
<path d="M36.6074 7.27394V4.33919C36.6074 3.03173 35.7021 2.61786 34.716 2.61786C34.0346 2.61786 33.3537 2.84361 32.8246 3.33273L33.2547 4.13227C33.6223 3.77482 34.0525 3.59611 34.5186 3.59611C35.0923 3.59611 35.469 3.89711 35.469 4.35803V4.9694C35.1822 4.61198 34.6713 4.41444 34.0976 4.41444C33.4075 4.41444 32.5916 4.8189 32.5916 5.88182C32.5916 6.89769 33.4075 7.38682 34.0976 7.38682C34.6622 7.38682 35.1731 7.17048 35.469 6.80365V7.27394H36.6074ZM34.5546 6.5779C34.1063 6.5779 33.7391 6.33332 33.7391 5.91003C33.7391 5.46794 34.1063 5.2234 34.5546 5.2234C34.9222 5.2234 35.2807 5.35507 35.469 5.61844V6.18282C35.2807 6.44619 34.9222 6.5779 34.5546 6.5779Z" fill="black"/>
<path d="M41.7965 7.27394V4.0664C41.7965 3.18223 41.3395 2.61786 40.3895 2.61786C39.6816 2.61786 39.1525 2.97528 38.8747 3.32332V2.73073H37.7363V7.27394H38.8747V4.2169C39.0627 3.94415 39.4125 3.68077 39.8604 3.68077C40.3447 3.68077 40.6581 3.89711 40.6581 4.52732V7.27394H41.7965Z" fill="black"/>
<path d="M47.1578 7.27396L45.3918 4.79071L47.1039 2.73075H45.7056L44.0654 4.75308V1H42.927V7.27396H44.0654V6.10758L44.5854 5.52438L45.7325 7.27396H47.1578Z" fill="black"/>
<path d="M46.4749 9.33234H46.7621V10.2976H46.7783L47.1519 9.83396L47.417 9.83321L47.0071 10.34L47.5009 10.9739H47.1701L46.7661 10.3839H46.7621V10.9739H46.4749V9.33234Z" fill="#7F7F7F"/>
<path d="M32.8147 9.4057V10.3059C32.8147 10.6125 32.9006 10.7802 33.1416 10.7802C33.3719 10.7802 33.4641 10.5769 33.4641 10.3236V9.4057H33.7359V10.3797C33.7359 10.7757 33.4902 11 33.1329 11C32.7241 11 32.5112 10.7913 32.5112 10.364V9.4057H32.8147Z" fill="#7F7F7F"/>
<path d="M34.3706 9.98549C34.468 9.8782 34.6033 9.82666 34.739 9.82666C34.9907 9.82666 35.124 9.96962 35.124 10.2517V10.9728H34.8383V10.2856C34.8383 10.1287 34.7719 10.0256 34.6227 10.0256C34.483 10.0256 34.373 10.122 34.373 10.3058V10.9728H34.0869V9.85329H34.3706V9.98549Z" fill="#7F7F7F"/>
<path d="M35.4602 10.9733H35.7463V9.85369H35.4602V10.9733ZM35.4321 9.51798C35.4321 9.43302 35.501 9.34552 35.5979 9.34552C35.6968 9.34552 35.774 9.43073 35.774 9.51798C35.774 9.61414 35.7075 9.70602 35.6023 9.70602C35.501 9.70602 35.4321 9.61414 35.4321 9.51798Z" fill="#7F7F7F"/>
<path d="M36.3794 10.9728L35.9216 9.84845H36.2247C36.3173 10.106 36.4139 10.3483 36.5041 10.6594H36.5084C36.6054 10.3483 36.6972 10.106 36.7961 9.84845H37.0644L36.5797 10.9728H36.3794Z" fill="#7F7F7F"/>
<path d="M37.916 10.2789C37.9271 10.1083 37.8689 9.9922 37.7272 9.9922C37.563 9.9922 37.4894 10.1287 37.4926 10.2789H37.916ZM37.4878 10.4401C37.4815 10.6507 37.6232 10.8072 37.802 10.8072C37.9081 10.8072 38.0193 10.7691 38.0909 10.7175L38.1724 10.8744C38.026 10.9638 37.8732 11 37.7506 11C37.4253 11 37.1824 10.7601 37.1824 10.3907C37.1824 10.0458 37.4233 9.82666 37.7312 9.82666C38.0667 9.82666 38.2068 10.1063 38.1858 10.4401H37.4878Z" fill="#7F7F7F"/>
<path d="M38.7473 10.0503H38.7517L38.8098 9.96304C38.8415 9.91358 38.9064 9.82666 38.9946 9.82666C39.0591 9.82666 39.1284 9.86249 39.1885 9.92716L39.0809 10.1332C39.0334 10.1083 39.0033 10.0952 38.9451 10.0952C38.8462 10.0952 38.7493 10.178 38.7493 10.4197V10.9728H38.4624V9.85329H38.7473V10.0503Z" fill="#7F7F7F"/>
<path d="M39.9527 10.0637C39.8882 10.0145 39.8214 9.9922 39.7699 9.9922C39.7054 9.9922 39.6405 10.0301 39.6405 10.1063C39.6405 10.1959 39.7442 10.2476 39.8645 10.339C40.018 10.4582 40.0627 10.5745 40.0627 10.677C40.0627 10.8343 39.8965 11 39.6603 11C39.5115 11 39.4019 10.946 39.301 10.8722L39.3912 10.7175C39.4553 10.7715 39.5479 10.8249 39.6251 10.8249C39.7078 10.8249 39.7806 10.7801 39.7806 10.6861C39.7806 10.5809 39.6682 10.5227 39.5653 10.4465C39.4427 10.3594 39.3588 10.2742 39.3588 10.1356C39.3588 9.95841 39.5218 9.82666 39.7331 9.82666C39.8518 9.82666 39.9678 9.85779 40.0457 9.92975L39.9527 10.0637Z" fill="#7F7F7F"/>
<path d="M40.7683 10.3772C40.6286 10.4243 40.5578 10.5071 40.5578 10.6346C40.5578 10.7332 40.6179 10.8005 40.6872 10.8005C40.8007 10.8005 40.9495 10.6526 40.9281 10.3235L40.7683 10.3772ZM40.8593 10.8655C40.7813 10.9327 40.6824 11 40.5839 11C40.4157 11 40.2756 10.8655 40.2756 10.6595C40.2756 10.4465 40.4244 10.328 40.6741 10.2517L40.9281 10.1733C40.9131 10.0705 40.8249 10.0057 40.7327 10.0057C40.6096 10.0057 40.5233 10.0527 40.4482 10.12L40.3552 9.97883C40.4889 9.8647 40.6199 9.82666 40.7683 9.82666C40.9669 9.82666 41.2103 9.89337 41.2103 10.2431V10.6996C41.2103 10.7893 41.2206 10.8948 41.2554 10.9728H40.9519C40.9297 10.9347 40.9238 10.87 40.9238 10.8095L40.8593 10.8655Z" fill="#7F7F7F"/>
<path d="M41.5308 10.973H41.8172V9.32739H41.5308V10.973Z" fill="#7F7F7F"/>
<path d="M44.3528 10.3772C44.2127 10.4243 44.1415 10.5071 44.1415 10.6346C44.1415 10.7332 44.2016 10.8005 44.2709 10.8005C44.3845 10.8005 44.5332 10.6526 44.5123 10.3235L44.3528 10.3772ZM44.4426 10.8655C44.3655 10.9327 44.2665 11 44.1672 11C43.9995 11 43.8594 10.8655 43.8594 10.6595C43.8594 10.4465 44.0078 10.328 44.2582 10.2517L44.5123 10.1733C44.4964 10.0705 44.409 10.0057 44.3156 10.0057C44.1933 10.0057 44.1071 10.0527 44.0315 10.12L43.9389 9.97883C44.0727 9.8647 44.204 9.82666 44.3528 9.82666C44.5503 9.82666 44.7936 9.89337 44.7936 10.2431V10.6996C44.7936 10.7893 44.8043 10.8948 44.8383 10.9728H44.5356C44.5142 10.9347 44.5071 10.87 44.5071 10.8095L44.4426 10.8655Z" fill="#7F7F7F"/>
<path d="M45.3986 9.98549C45.4956 9.8782 45.6313 9.82666 45.767 9.82666C46.0187 9.82666 46.152 9.96962 46.152 10.2517V10.9728H45.8659V10.2856C45.8659 10.1287 45.799 10.0256 45.6507 10.0256C45.5106 10.0256 45.4006 10.122 45.4006 10.3058V10.9728H45.1145V9.85329H45.3986V9.98549Z" fill="#7F7F7F"/>
<path d="M42.8618 10.7845H43.0166C43.1847 10.7845 43.3121 10.6928 43.3121 10.5184C43.3121 10.3346 43.1808 10.2564 43.015 10.2564H42.8618V10.7845ZM42.8618 10.0638H42.9568C43.1313 10.0638 43.25 9.94749 43.25 9.80166C43.25 9.66312 43.1503 9.60283 43.0189 9.60283H42.8618V10.0638ZM42.5583 10.9772V9.41003H43.1032C43.3573 9.41003 43.5361 9.53087 43.5361 9.74358C43.5361 9.9942 43.3402 10.0975 43.2346 10.1264V10.1309C43.4221 10.14 43.6307 10.2741 43.6307 10.5137C43.6307 10.7845 43.413 10.9772 43.0581 10.9772H42.5583Z" fill="#7F7F7F"/>
</g>
<defs>
<clipPath id="clip0_2124_3634">
<rect width="43" height="10" fill="white" transform="translate(4.5 1.5)"/>
</clipPath>
</defs>
</svg>
