<svg width="34" height="34" viewBox="0 0 34 34" fill="none" xmlns="http://www.w3.org/2000/svg">
<path fill-rule="evenodd" clip-rule="evenodd" d="M13.9266 10.3074C13.9266 9.57023 13.9128 8.83303 13.9266 8.09031C13.9343 7.96334 13.915 7.83617 13.8697 7.71728C13.8245 7.59839 13.7545 7.49051 13.6643 7.40083C13.5741 7.31114 13.4658 7.24171 13.3467 7.19717C13.2276 7.15262 13.1003 7.13398 12.9734 7.14248C12.1116 7.16466 11.2471 7.14248 10.3825 7.14248C10.2891 7.14289 10.1961 7.13172 10.1054 7.10923C10.0662 7.10403 10.029 7.08881 9.99743 7.06506C9.96583 7.04129 9.9409 7.00979 9.92501 6.97357C9.90914 6.93736 9.90287 6.89766 9.9068 6.85832C9.91073 6.81897 9.92474 6.7813 9.94747 6.74894C9.98732 6.68445 10.0358 6.6257 10.0916 6.57435L16.3789 0.272201C16.4568 0.186466 16.5518 0.117965 16.6577 0.0710896C16.7637 0.0242144 16.8783 0 16.9941 0C17.1099 0 17.2245 0.0242144 17.3304 0.0710896C17.4363 0.117965 17.5313 0.186466 17.6093 0.272201L23.8856 6.54941C24.0019 6.6658 24.1377 6.79606 24.0602 6.9762C23.9825 7.15635 23.7831 7.14525 23.6306 7.14803C22.7993 7.14803 21.9902 7.16743 21.1727 7.14803C21.042 7.13796 20.9106 7.15639 20.7877 7.20208C20.6646 7.24775 20.5531 7.31959 20.4606 7.41261C20.3682 7.50563 20.297 7.61762 20.252 7.74085C20.207 7.86408 20.1893 7.99559 20.2001 8.12634C20.2001 9.60626 20.2001 11.0862 20.2001 12.5605C20.2078 12.6868 20.1886 12.8132 20.1439 12.9315C20.0992 13.0497 20.0298 13.1572 19.9405 13.2467C19.8513 13.3363 19.7441 13.4059 19.6259 13.451C19.5078 13.4961 19.3815 13.5156 19.2552 13.5084C17.781 13.4917 16.3069 13.5084 14.8216 13.5084C14.6984 13.5215 14.5737 13.5068 14.4568 13.4655C14.3399 13.4241 14.2338 13.3572 14.1461 13.2696C14.0583 13.1818 13.9914 13.0756 13.9501 12.9588C13.9087 12.8418 13.8941 12.7172 13.9073 12.5938V10.3074H13.9266ZM13.9266 23.6822V21.2627C13.9179 21.1434 13.935 21.0237 13.9768 20.9116C14.0186 20.7995 14.0841 20.6978 14.1688 20.6133C14.2535 20.5289 14.3554 20.4637 14.4676 20.4222C14.5798 20.3808 14.6997 20.3641 14.8189 20.3731C16.3235 20.3731 17.8254 20.3731 19.33 20.3731C19.4454 20.3724 19.5597 20.3946 19.6664 20.4382C19.7732 20.4819 19.8701 20.5464 19.9518 20.6278C20.0335 20.7093 20.0982 20.8061 20.1423 20.9126C20.1863 21.0193 20.2088 21.1335 20.2085 21.2489C20.1946 22.8397 20.2085 24.4332 20.2085 26.024C20.1975 26.1575 20.2146 26.2917 20.2584 26.4181C20.3023 26.5445 20.3721 26.6604 20.4634 26.7584C20.5425 26.8406 20.6377 26.9058 20.7431 26.9497C20.8484 26.9935 20.9617 27.0152 21.0758 27.0134H23.4477C23.5494 27.012 23.6509 27.0232 23.7498 27.0467C23.7877 27.0518 23.8238 27.0665 23.8544 27.0895C23.885 27.1124 23.9093 27.1429 23.9248 27.1779C23.9403 27.2129 23.9467 27.2513 23.9432 27.2894C23.9398 27.3276 23.9266 27.3642 23.9049 27.3958C23.8641 27.4726 23.8119 27.5427 23.7498 27.6037L17.6037 33.734C17.529 33.8146 17.4391 33.8795 17.3392 33.9251C17.2394 33.9705 17.1313 33.9959 17.0215 33.9995C16.9118 34.0032 16.8025 33.985 16.6997 33.946C16.5971 33.9071 16.503 33.8483 16.4233 33.7728C16.3845 33.7368 16.3457 33.7008 16.3069 33.662L11.2693 28.6152C10.9238 28.2697 10.5793 27.9214 10.2357 27.5705C10.1276 27.4596 10.0029 27.3404 10.0749 27.1658C10.147 26.9912 10.3216 26.994 10.4767 26.994H13.0233C13.1438 27.003 13.265 26.986 13.3783 26.9441C13.4918 26.9023 13.595 26.8366 13.6808 26.7515C13.7668 26.6664 13.8334 26.5639 13.8762 26.4507C13.9192 26.3377 13.9372 26.2167 13.9294 26.096C13.9294 25.2896 13.9294 24.4831 13.9294 23.6794L13.9266 23.6822ZM7.07118 16.9893C7.07118 19.1583 7.07118 21.3265 7.07118 23.4937C7.07319 23.6047 7.06108 23.7155 7.03516 23.8235C7.02994 23.8614 7.01502 23.8973 6.99184 23.9277C6.96866 23.9581 6.93802 23.982 6.90288 23.9971C6.86775 24.0121 6.8293 24.0178 6.79131 24.0137C6.7533 24.0094 6.71704 23.9955 6.68602 23.9732C6.59696 23.9234 6.51572 23.8609 6.44494 23.7874L0.293335 17.6378C0.199888 17.5569 0.125225 17.4566 0.0745683 17.344C0.023912 17.2313 -0.00151394 17.1089 6.96835e-05 16.9854C0.00165332 16.8619 0.0302083 16.7401 0.0837365 16.6288C0.137264 16.5174 0.214473 16.4191 0.309961 16.3407L6.47542 10.1772C6.59457 10.058 6.72758 9.92774 6.90492 10.0053C7.08226 10.0829 7.07118 10.2631 7.07118 10.4238V16.9893ZM27.0695 16.9893C27.0695 14.8885 27.0695 12.7878 27.0695 10.6871C27.0659 10.5565 27.0799 10.426 27.111 10.2991C27.1176 10.2653 27.1325 10.2337 27.1543 10.207C27.1759 10.1802 27.2039 10.1592 27.2357 10.1458C27.2674 10.1324 27.302 10.127 27.3362 10.1301C27.3705 10.1331 27.4035 10.1445 27.4324 10.1633C27.5148 10.203 27.5898 10.2564 27.6541 10.3213C29.6862 12.3537 31.7182 14.3814 33.7503 16.4045C33.903 16.5541 33.9923 16.7567 33.9995 16.9703C34.0067 17.184 33.9313 17.3923 33.789 17.5518C33.7503 17.5962 33.7115 17.6377 33.6699 17.6794L29.7296 21.6091L27.668 23.6656C27.5488 23.7847 27.4241 23.9149 27.2412 23.8401C27.0583 23.7653 27.0833 23.5934 27.0722 23.4383C27.0722 23.3801 27.0722 23.3219 27.0722 23.2636C27.0722 21.1722 27.0722 19.0807 27.0722 16.9893H27.0695Z" fill="#D1210F"/>
</svg>
