<svg width="40" height="40" viewBox="0 0 40 40" fill="none" xmlns="http://www.w3.org/2000/svg">
<path fill-rule="evenodd" clip-rule="evenodd" d="M16.9266 13.3074C16.9266 12.5702 16.9128 11.833 16.9266 11.0903C16.9343 10.9633 16.915 10.8362 16.8697 10.7173C16.8245 10.5984 16.7545 10.4905 16.6643 10.4008C16.5741 10.3111 16.4658 10.2417 16.3467 10.1972C16.2276 10.1526 16.1003 10.134 15.9734 10.1425C15.1116 10.1647 14.2471 10.1425 13.3825 10.1425C13.2891 10.1429 13.1961 10.1317 13.1054 10.1092C13.0662 10.104 13.029 10.0888 12.9974 10.0651C12.9658 10.0413 12.9409 10.0098 12.925 9.97357C12.9091 9.93736 12.9029 9.89766 12.9068 9.85832C12.9107 9.81897 12.9247 9.7813 12.9475 9.74894C12.9873 9.68445 13.0358 9.6257 13.0916 9.57435L19.3789 3.2722C19.4568 3.18647 19.5518 3.11797 19.6577 3.07109C19.7637 3.02421 19.8783 3 19.9941 3C20.1099 3 20.2245 3.02421 20.3304 3.07109C20.4363 3.11797 20.5313 3.18647 20.6093 3.2722L26.8856 9.54941C27.0019 9.6658 27.1377 9.79606 27.0602 9.9762C26.9825 10.1563 26.7831 10.1453 26.6306 10.148C25.7993 10.148 24.9902 10.1674 24.1727 10.148C24.042 10.138 23.9106 10.1564 23.7877 10.2021C23.6646 10.2478 23.5531 10.3196 23.4606 10.4126C23.3682 10.5056 23.297 10.6176 23.252 10.7408C23.207 10.8641 23.1893 10.9956 23.2001 11.1263C23.2001 12.6063 23.2001 14.0862 23.2001 15.5605C23.2078 15.6868 23.1886 15.8132 23.1439 15.9315C23.0992 16.0497 23.0298 16.1572 22.9405 16.2467C22.8513 16.3363 22.7441 16.4059 22.6259 16.451C22.5078 16.4961 22.3815 16.5156 22.2552 16.5084C20.781 16.4917 19.3069 16.5084 17.8216 16.5084C17.6984 16.5215 17.5737 16.5068 17.4568 16.4655C17.3399 16.4241 17.2338 16.3572 17.1461 16.2696C17.0583 16.1818 16.9914 16.0756 16.9501 15.9588C16.9087 15.8418 16.8941 15.7172 16.9073 15.5938V13.3074H16.9266ZM16.9266 26.6822V24.2627C16.9179 24.1434 16.935 24.0237 16.9768 23.9116C17.0186 23.7995 17.0841 23.6978 17.1688 23.6133C17.2535 23.5289 17.3554 23.4637 17.4676 23.4222C17.5798 23.3808 17.6997 23.3641 17.8189 23.3731C19.3235 23.3731 20.8254 23.3731 22.33 23.3731C22.4454 23.3724 22.5597 23.3946 22.6664 23.4382C22.7732 23.4819 22.8701 23.5464 22.9518 23.6278C23.0335 23.7093 23.0982 23.8061 23.1423 23.9126C23.1863 24.0193 23.2088 24.1335 23.2085 24.2489C23.1946 25.8397 23.2085 27.4332 23.2085 29.024C23.1975 29.1575 23.2146 29.2917 23.2584 29.4181C23.3023 29.5445 23.3721 29.6604 23.4634 29.7584C23.5425 29.8406 23.6377 29.9058 23.7431 29.9497C23.8484 29.9935 23.9617 30.0152 24.0758 30.0134H26.4477C26.5494 30.012 26.6509 30.0232 26.7498 30.0467C26.7877 30.0518 26.8238 30.0665 26.8544 30.0895C26.885 30.1124 26.9093 30.1429 26.9248 30.1779C26.9403 30.2129 26.9467 30.2513 26.9432 30.2894C26.9398 30.3276 26.9266 30.3642 26.9049 30.3958C26.8641 30.4726 26.8119 30.5427 26.7498 30.6037L20.6037 36.734C20.529 36.8146 20.4391 36.8795 20.3392 36.9251C20.2394 36.9705 20.1313 36.9959 20.0215 36.9995C19.9118 37.0032 19.8025 36.985 19.6997 36.946C19.5971 36.9071 19.503 36.8483 19.4233 36.7728C19.3845 36.7368 19.3457 36.7008 19.3069 36.662L14.2693 31.6152C13.9238 31.2697 13.5793 30.9214 13.2357 30.5705C13.1276 30.4596 13.0029 30.3404 13.0749 30.1658C13.147 29.9912 13.3216 29.994 13.4767 29.994H16.0233C16.1438 30.003 16.265 29.986 16.3783 29.9441C16.4918 29.9023 16.595 29.8366 16.6808 29.7515C16.7668 29.6664 16.8334 29.5639 16.8762 29.4507C16.9192 29.3377 16.9372 29.2167 16.9294 29.096C16.9294 28.2896 16.9294 27.4831 16.9294 26.6794L16.9266 26.6822ZM10.0712 19.9893C10.0712 22.1583 10.0712 24.3265 10.0712 26.4937C10.0732 26.6047 10.0611 26.7155 10.0352 26.8235C10.0299 26.8614 10.015 26.8973 9.99184 26.9277C9.96866 26.9581 9.93802 26.982 9.90288 26.9971C9.86775 27.0121 9.8293 27.0178 9.79131 27.0137C9.7533 27.0094 9.71704 26.9955 9.68602 26.9732C9.59696 26.9234 9.51572 26.8609 9.44494 26.7874L3.29333 20.6378C3.19989 20.5569 3.12523 20.4566 3.07457 20.344C3.02391 20.2313 2.99849 20.1089 3.00007 19.9854C3.00165 19.8619 3.03021 19.7401 3.08374 19.6288C3.13726 19.5174 3.21447 19.4191 3.30996 19.3407L9.47542 13.1772C9.59457 13.058 9.72758 12.9277 9.90492 13.0053C10.0823 13.0829 10.0712 13.2631 10.0712 13.4238V19.9893ZM30.0695 19.9893C30.0695 17.8885 30.0695 15.7878 30.0695 13.6871C30.0659 13.5565 30.0799 13.426 30.111 13.2991C30.1176 13.2653 30.1325 13.2337 30.1543 13.207C30.1759 13.1802 30.2039 13.1592 30.2357 13.1458C30.2674 13.1324 30.302 13.127 30.3362 13.1301C30.3705 13.1331 30.4035 13.1445 30.4324 13.1633C30.5148 13.203 30.5898 13.2564 30.6541 13.3213C32.6862 15.3537 34.7182 17.3814 36.7503 19.4045C36.903 19.5541 36.9923 19.7567 36.9995 19.9703C37.0067 20.184 36.9313 20.3923 36.789 20.5518C36.7503 20.5962 36.7115 20.6377 36.6699 20.6794L32.7296 24.6091L30.668 26.6656C30.5488 26.7847 30.4241 26.9149 30.2412 26.8401C30.0583 26.7653 30.0833 26.5934 30.0722 26.4383C30.0722 26.3801 30.0722 26.3219 30.0722 26.2636C30.0722 24.1722 30.0722 22.0807 30.0722 19.9893H30.0695Z" fill="#D1210F"/>
</svg>
