<svg width="18" height="23" viewBox="0 0 18 23" fill="none" xmlns="http://www.w3.org/2000/svg">
<path d="M15.249 12.8512C14.463 14.3779 13.398 15.8988 12.309 17.2644C11.2759 18.5518 10.1713 19.7851 9 20.9587C7.82862 19.7851 6.72403 18.5518 5.691 17.2644C4.602 15.8988 3.537 14.3779 2.751 12.8512C1.956 11.3088 1.5 9.86413 1.5 8.625C1.5 6.71876 2.29018 4.89059 3.6967 3.54267C5.10322 2.19475 7.01088 1.4375 9 1.4375C10.9891 1.4375 12.8968 2.19475 14.3033 3.54267C15.7098 4.89059 16.5 6.71876 16.5 8.625C16.5 9.86413 16.0425 11.3088 15.249 12.8512ZM9 23C9 23 18 14.8264 18 8.625C18 6.33751 17.0518 4.14371 15.364 2.5262C13.6761 0.908703 11.3869 0 9 0C6.61305 0 4.32387 0.908703 2.63604 2.5262C0.948211 4.14371 3.55683e-08 6.33751 0 8.625C0 14.8264 9 23 9 23Z" fill="#D1210F"/>
<path d="M9 11.1513C8.29276 11.1513 7.61448 10.8576 7.11438 10.3348C6.61428 9.81196 6.33333 9.10285 6.33333 8.36346C6.33333 7.62407 6.61428 6.91496 7.11438 6.39213C7.61448 5.8693 8.29276 5.57558 9 5.57558C9.70724 5.57558 10.3855 5.8693 10.8856 6.39213C11.3857 6.91496 11.6667 7.62407 11.6667 8.36346C11.6667 9.10285 11.3857 9.81196 10.8856 10.3348C10.3855 10.8576 9.70724 11.1513 9 11.1513ZM9 12.5453C10.0609 12.5453 11.0783 12.1047 11.8284 11.3205C12.5786 10.5362 13 9.47255 13 8.36346C13 7.25437 12.5786 6.19071 11.8284 5.40647C11.0783 4.62222 10.0609 4.18164 9 4.18164C7.93913 4.18164 6.92172 4.62222 6.17157 5.40647C5.42143 6.19071 5 7.25437 5 8.36346C5 9.47255 5.42143 10.5362 6.17157 11.3205C6.92172 12.1047 7.93913 12.5453 9 12.5453Z" fill="#D1210F"/>
</svg>
