<svg width="26" height="26" viewBox="0 0 26 26" fill="none" xmlns="http://www.w3.org/2000/svg">
<path d="M19.249 14.8512C18.463 16.3779 17.398 17.8988 16.309 19.2644C15.2759 20.5518 14.1713 21.7851 13 22.9587C11.8286 21.7851 10.724 20.5518 9.691 19.2644C8.602 17.8988 7.537 16.3779 6.751 14.8512C5.956 13.3088 5.5 11.8641 5.5 10.625C5.5 8.71876 6.29018 6.89059 7.6967 5.54267C9.10322 4.19475 11.0109 3.4375 13 3.4375C14.9891 3.4375 16.8968 4.19475 18.3033 5.54267C19.7098 6.89059 20.5 8.71876 20.5 10.625C20.5 11.8641 20.0425 13.3088 19.249 14.8512ZM13 25C13 25 22 16.8264 22 10.625C22 8.33751 21.0518 6.14371 19.364 4.5262C17.6761 2.9087 15.3869 2 13 2C10.6131 2 8.32387 2.9087 6.63604 4.5262C4.94821 6.14371 4 8.33751 4 10.625C4 16.8264 13 25 13 25Z" fill="#D1210F"/>
<path d="M13 13.1513C12.2928 13.1513 11.6145 12.8576 11.1144 12.3348C10.6143 11.812 10.3333 11.1028 10.3333 10.3635C10.3333 9.62407 10.6143 8.91496 11.1144 8.39213C11.6145 7.8693 12.2928 7.57558 13 7.57558C13.7072 7.57558 14.3855 7.8693 14.8856 8.39213C15.3857 8.91496 15.6667 9.62407 15.6667 10.3635C15.6667 11.1028 15.3857 11.812 14.8856 12.3348C14.3855 12.8576 13.7072 13.1513 13 13.1513ZM13 14.5453C14.0609 14.5453 15.0783 14.1047 15.8284 13.3205C16.5786 12.5362 17 11.4725 17 10.3635C17 9.25437 16.5786 8.19071 15.8284 7.40647C15.0783 6.62222 14.0609 6.18164 13 6.18164C11.9391 6.18164 10.9217 6.62222 10.1716 7.40647C9.42143 8.19071 9 9.25437 9 10.3635C9 11.4725 9.42143 12.5362 10.1716 13.3205C10.9217 14.1047 11.9391 14.5453 13 14.5453Z" fill="#D1210F"/>
</svg>
