<svg width="18" height="18" viewBox="0 0 18 18" fill="none" xmlns="http://www.w3.org/2000/svg">
<g clip-path="url(#clip0_2026_1395)">
<path d="M9.00211 18C4.02859 18 0 13.9735 0 9.00141C0 4.01172 4.02859 -0.0028108 9.03304 1.47665e-06C13.9904 0.00281376 18.0028 4.04476 18 9.03305C17.9972 13.9756 13.9588 18 9.00211 18ZM11.7364 6.93438C11.7033 7.05461 11.6154 7.11577 11.5395 7.18397C10.2697 8.33068 9.00211 9.47879 7.72674 10.6185C7.57558 10.7535 7.48981 10.8927 7.47926 11.0937C7.44903 11.6548 7.40755 12.2158 7.37732 12.7769C7.37239 12.8739 7.3042 13.0047 7.4188 13.0652C7.53972 13.1284 7.64378 13.0321 7.72744 12.9527C8.05086 12.6468 8.37638 12.3424 8.68503 12.0218C8.82986 11.8706 8.92969 11.8713 9.09492 11.9972C9.71854 12.4732 10.3527 12.9351 10.9862 13.3977C11.5135 13.783 11.8179 13.6691 11.9536 13.0377C12.1772 11.9979 12.3972 10.9573 12.6194 9.91751C12.8831 8.68292 13.1502 7.44973 13.4061 6.21374C13.4554 5.9761 13.5004 5.71385 13.2831 5.52262C13.0546 5.32154 12.8219 5.45372 12.5934 5.5416C11.787 5.85236 10.9791 6.16101 10.172 6.47176C8.16616 7.24514 6.1596 8.01781 4.15514 8.79471C3.95196 8.87345 3.67846 8.94587 3.68268 9.20319C3.6869 9.47457 3.97586 9.49637 4.18186 9.56246C4.76049 9.74877 5.34404 9.91821 5.91774 10.1172C6.15257 10.198 6.32763 10.1608 6.53293 10.0293C8.10218 9.02953 9.67776 8.04031 11.254 7.0518C11.3918 6.96532 11.5268 6.82541 11.7356 6.93368L11.7364 6.93438Z" fill="#039BE5"/>
</g>
<defs>
<clipPath id="clip0_2026_1395">
<rect width="18" height="18" fill="white"/>
</clipPath>
</defs>
</svg>
