<svg width="18" height="18" viewBox="0 0 18 18" fill="none" xmlns="http://www.w3.org/2000/svg">
<g clip-path="url(#clip0_2026_1397)">
<path d="M8.98313 18C4.02086 17.9986 -0.000702978 13.9616 9.21717e-08 8.98172C0.000703162 4.00539 4.04054 -0.0028108 9.05273 1.47898e-06C13.9827 0.00281376 18.0042 4.05601 17.9993 9.01617C17.9951 13.9827 13.9623 18.0007 8.98242 17.9993L8.98313 18ZM14.4228 8.34123C14.446 7.6944 14.3757 7.05531 14.266 6.41903C14.0389 5.10359 12.8795 3.87603 11.5782 3.62081C9.8711 3.28615 8.14647 3.251 6.44997 3.62784C5.05297 3.9386 4.1214 4.84205 3.78181 6.26084C3.50129 7.43497 3.53715 8.62738 3.66651 9.82259C3.79517 11.0122 4.38716 11.8967 5.35669 12.5639C5.62245 12.7467 6.05203 12.7586 6.16452 13.0469C6.27982 13.3422 6.19475 13.7162 6.19475 14.0558C6.19475 14.3004 6.28334 14.491 6.51957 14.5866C6.75299 14.6808 6.92383 14.5669 7.07851 14.4059C7.40333 14.0684 7.73447 13.7366 8.05437 13.3942C8.16686 13.274 8.28006 13.2163 8.4502 13.2248C9.36489 13.2697 10.2733 13.2058 11.1809 13.0806C12.7199 12.8683 14.0023 11.697 14.2618 10.2269C14.3722 9.60324 14.4439 8.9761 14.4214 8.34123H14.4228Z" fill="#824AAC"/>
<path d="M13.4725 8.27537C13.4577 8.95946 13.4085 9.60136 13.2728 10.2327C13.0935 11.0694 12.1331 11.9468 11.2585 12.0888C10.4711 12.2168 9.67871 12.2885 8.88143 12.2808C8.67332 12.2787 8.53411 12.3497 8.39491 12.4959C7.90205 13.0134 7.39866 13.5203 6.89666 14.0286C6.83479 14.0912 6.78066 14.2015 6.67098 14.1573C6.55989 14.1123 6.59997 13.9948 6.59997 13.9077C6.59645 13.3804 6.59856 12.8538 6.59786 12.3265C6.59786 12.1992 6.61122 12.0839 6.44248 12.0185C5.24093 11.5531 4.67004 10.6419 4.57934 9.3813C4.51326 8.4666 4.50271 7.55613 4.67988 6.65268C4.90065 5.52988 5.69512 4.72698 6.82495 4.52941C8.2782 4.2756 9.73988 4.27631 11.1931 4.53363C12.3426 4.73752 13.1589 5.60652 13.3466 6.77642C13.4282 7.28615 13.4549 7.80009 13.4718 8.27607L13.4725 8.27537ZM9.31241 9.70893C9.3321 9.71174 9.27023 9.71245 9.2168 9.69206C8.44201 9.40099 7.94635 8.84064 7.67496 8.07218C7.60747 7.88165 7.69113 7.73049 7.85003 7.6173C7.96533 7.53504 8.07149 7.44575 8.1193 7.30373C8.22125 7.0007 7.46264 5.86525 7.13993 5.83994C6.64918 5.80127 6.07126 6.58589 6.24281 7.05765C6.92619 8.94188 8.18258 10.2798 10.0387 11.0504C10.6722 11.3133 11.1235 11.1439 11.4399 10.5224C11.5517 10.3023 11.5404 10.1167 11.3373 9.96555C11.0659 9.76236 10.791 9.5641 10.5147 9.36653C10.2355 9.16686 9.99088 9.20413 9.78839 9.48324C9.68855 9.62105 9.58239 9.74127 9.31241 9.70963V9.70893ZM11.6797 8.19452C11.6564 7.53082 11.4512 6.93462 11.0019 6.43684C10.4844 5.86384 9.83761 5.55308 9.06001 5.53621C8.95314 5.5341 8.79636 5.49754 8.79425 5.67401C8.79214 5.83853 8.93979 5.82447 9.05368 5.83501C9.10009 5.83923 9.14719 5.83853 9.19359 5.84345C10.3305 5.96016 11.1538 6.72932 11.3429 7.85775C11.3738 8.04125 11.3766 8.22897 11.4005 8.41387C11.4111 8.49965 11.4547 8.57066 11.5566 8.57066C11.6691 8.57066 11.6846 8.4877 11.6881 8.40333C11.6909 8.33372 11.6825 8.26342 11.6789 8.19311L11.6797 8.19452ZM10.9843 8.00469C10.959 7.08015 10.2573 6.32646 9.36303 6.25545C9.23859 6.24561 9.04173 6.16405 9.02556 6.37708C9.0122 6.55285 9.19641 6.52402 9.31874 6.54371C10.1547 6.6801 10.611 7.17436 10.6883 8.02508C10.6989 8.13968 10.6806 8.29295 10.8458 8.28521C11.0448 8.27678 10.9646 8.0996 10.9843 8.00469ZM10.2995 7.82048C10.3115 7.40216 9.87487 6.94586 9.42772 6.96133C9.32718 6.96485 9.23367 6.97891 9.22242 7.09773C9.21258 7.19967 9.28921 7.23904 9.3771 7.24889C9.77222 7.29529 9.9733 7.51746 10.007 7.91188C10.0148 8.00328 10.0752 8.09749 10.1948 8.07007C10.2918 8.04828 10.2974 7.95758 10.2988 7.82048H10.2995Z" fill="#824AAC"/>
</g>
<defs>
<clipPath id="clip0_2026_1397">
<rect width="18" height="18" fill="white"/>
</clipPath>
</defs>
</svg>
