<svg width="40" height="20" viewBox="0 0 40 20" fill="none" xmlns="http://www.w3.org/2000/svg">
<rect width="40" height="20" rx="2" fill="white"/>
<path d="M17.6665 15.4731H14.8313L16.6047 4.56232H19.4397L17.6665 15.4731Z" fill="#00579F"/>
<path d="M27.9446 4.82896C27.3854 4.60819 26.4984 4.36444 25.4017 4.36444C22.6018 4.36444 20.6301 5.85009 20.618 7.97412C20.5948 9.54122 22.0297 10.4116 23.1029 10.9341C24.1998 11.4681 24.5727 11.8166 24.5727 12.2925C24.5615 13.0235 23.6863 13.3604 22.87 13.3604C21.738 13.3604 21.1315 13.1867 20.2098 12.78L19.8364 12.6057L19.4397 15.0549C20.1047 15.3564 21.3298 15.6239 22.6018 15.6356C25.5767 15.6356 27.5135 14.173 27.5364 11.9095C27.5477 10.6674 26.7901 9.7157 25.1565 8.93801C24.1649 8.43879 23.5576 8.10216 23.5576 7.59137C23.5692 7.127 24.0712 6.65138 25.1906 6.65138C26.1124 6.62809 26.7896 6.84854 27.3026 7.06915L27.5591 7.18501L27.9446 4.82896Z" fill="#00579F"/>
<path d="M31.713 11.6078C31.9465 10.981 32.845 8.55505 32.845 8.55505C32.8332 8.57835 33.078 7.91667 33.218 7.51047L33.4161 8.45061C33.4161 8.45061 33.953 11.0623 34.0696 11.6078C33.6265 11.6078 32.273 11.6078 31.713 11.6078ZM35.2127 4.56232H33.0197C32.3434 4.56232 31.8296 4.75948 31.5378 5.46759L27.3264 15.473H30.3013C30.3013 15.473 30.7911 14.1263 30.8964 13.8363C31.2228 13.8363 34.1168 13.8363 34.5366 13.8363C34.618 14.2193 34.8749 15.473 34.8749 15.473H37.5001L35.2127 4.56232Z" fill="#00579F"/>
<path d="M12.4633 4.56232L9.68671 12.0024L9.38329 10.4935C8.86995 8.75237 7.26 6.86067 5.46338 5.92007L8.00668 15.4615H11.0049L15.4614 4.56232H12.4633Z" fill="#00579F"/>
<path d="M7.10829 4.56232H2.54667L2.5 4.78277C6.05835 5.6882 8.41498 7.8707 9.38322 10.494L8.39157 5.47947C8.22831 4.78262 7.7266 4.5853 7.10829 4.56232Z" fill="#FAA61A"/>
</svg>
