<svg width="30" height="28" viewBox="0 0 30 28" fill="none" xmlns="http://www.w3.org/2000/svg">
<path d="M29.0002 11H28.0004V4.99998C28.0004 4.73477 27.895 4.48041 27.7075 4.29288C27.52 4.10534 27.2657 3.99998 27.0005 3.99998H3.00486C2.76812 4.00385 2.53768 3.92355 2.35459 3.77339C2.1715 3.62322 2.04763 3.41294 2.00504 3.17999V2.81999C2.04763 2.58703 2.1715 2.37675 2.35459 2.22659C2.53768 2.07643 2.76812 1.99613 3.00486 1.99999H26.5806C26.8458 1.99999 27.1001 1.89464 27.2876 1.7071C27.4751 1.51956 27.5804 1.26521 27.5804 0.999996C27.5804 0.734781 27.4751 0.480428 27.2876 0.292892C27.1001 0.105357 26.8458 0 26.5806 0H3.00486C2.20936 0 1.44643 0.316069 0.883925 0.878676C0.321418 1.44128 0.00540389 2.20434 0.00540389 2.99999C-0.0018013 3.11988 -0.0018013 3.2401 0.00540389 3.35999V23.9299C0.00932846 24.4683 0.11925 25.0007 0.328891 25.4966C0.538532 25.9926 0.843787 26.4423 1.22723 26.8203C1.61067 27.1982 2.06478 27.4969 2.56364 27.6993C3.0625 27.9017 3.59633 28.0038 4.13466 27.9999H27.0005C27.2657 27.9999 27.52 27.8945 27.7075 27.707C27.895 27.5195 28.0004 27.2651 28.0004 26.9999V20.9999H29.0002C29.2654 20.9999 29.5197 20.8946 29.7072 20.707C29.8947 20.5195 30 20.2651 30 19.9999V12C30 11.7347 29.8947 11.4804 29.7072 11.2928C29.5197 11.1053 29.2654 11 29.0002 11ZM26.0007 25.9999H4.13466C3.57856 26.0053 3.04284 25.7908 2.64402 25.4032C2.2452 25.0155 2.01556 24.486 2.00504 23.9299V5.87998C2.32955 5.97422 2.66728 6.01475 3.00486 5.99998H26.0007V11H19.002C17.6761 11 16.4046 11.5267 15.4671 12.4644C14.5296 13.4021 14.0029 14.6739 14.0029 15.9999C14.0029 17.326 14.5296 18.5978 15.4671 19.5355C16.4046 20.4731 17.6761 20.9999 19.002 20.9999H26.0007V25.9999ZM28.0004 18.9999H19.002C18.2065 18.9999 17.4436 18.6839 16.881 18.1213C16.3185 17.5586 16.0025 16.7956 16.0025 15.9999C16.0025 15.2043 16.3185 14.4412 16.881 13.8786C17.4436 13.316 18.2065 12.9999 19.002 12.9999H28.0004V18.9999Z" fill="#D1210F"/>
</svg>
