<svg width="40" height="40" viewBox="0 0 40 40" fill="none" xmlns="http://www.w3.org/2000/svg">
<g clip-path="url(#clip0_2124_3667)">
<path d="M34.0002 17H33.0004V11C33.0004 10.7348 32.895 10.4804 32.7075 10.2929C32.52 10.1053 32.2657 9.99998 32.0005 9.99998H8.00486C7.76812 10.0038 7.53768 9.92355 7.35459 9.77339C7.1715 9.62322 7.04763 9.41294 7.00504 9.17999V8.81999C7.04763 8.58703 7.1715 8.37675 7.35459 8.22659C7.53768 8.07643 7.76812 7.99613 8.00486 7.99999H31.5806C31.8458 7.99999 32.1001 7.89464 32.2876 7.7071C32.4751 7.51956 32.5804 7.26521 32.5804 7C32.5804 6.73478 32.4751 6.48043 32.2876 6.29289C32.1001 6.10536 31.8458 6 31.5806 6H8.00486C7.20936 6 6.44643 6.31607 5.88393 6.87868C5.32142 7.44128 5.0054 8.20434 5.0054 8.99999C4.9982 9.11988 4.9982 9.2401 5.0054 9.35999V29.9299C5.00933 30.4683 5.11925 31.0007 5.32889 31.4966C5.53853 31.9926 5.84379 32.4423 6.22723 32.8203C6.61067 33.1982 7.06478 33.4969 7.56364 33.6993C8.0625 33.9017 8.59633 34.0038 9.13466 33.9999H32.0005C32.2657 33.9999 32.52 33.8945 32.7075 33.707C32.895 33.5195 33.0004 33.2651 33.0004 32.9999V26.9999H34.0002C34.2654 26.9999 34.5197 26.8946 34.7072 26.707C34.8947 26.5195 35 26.2651 35 25.9999V18C35 17.7347 34.8947 17.4804 34.7072 17.2928C34.5197 17.1053 34.2654 17 34.0002 17ZM31.0007 31.9999H9.13466C8.57856 32.0053 8.04284 31.7908 7.64402 31.4032C7.2452 31.0155 7.01556 30.486 7.00504 29.9299V11.88C7.32955 11.9742 7.66728 12.0148 8.00486 12H31.0007V17H24.002C22.6761 17 21.4046 17.5267 20.4671 18.4644C19.5296 19.4021 19.0029 20.6739 19.0029 21.9999C19.0029 23.326 19.5296 24.5978 20.4671 25.5355C21.4046 26.4731 22.6761 26.9999 24.002 26.9999H31.0007V31.9999ZM33.0004 24.9999H24.002C23.2065 24.9999 22.4436 24.6839 21.881 24.1213C21.3185 23.5586 21.0025 22.7956 21.0025 21.9999C21.0025 21.2043 21.3185 20.4412 21.881 19.8786C22.4436 19.316 23.2065 18.9999 24.002 18.9999H33.0004V24.9999Z" fill="#D1210F"/>
<path d="M25.5685 23.8889C26.489 23.8889 27.2352 23.1427 27.2352 22.2222C27.2352 21.3017 26.489 20.5555 25.5685 20.5555C24.648 20.5555 23.9019 21.3017 23.9019 22.2222C23.9019 23.1427 24.648 23.8889 25.5685 23.8889Z" fill="#D1210F"/>
</g>
<defs>
<clipPath id="clip0_2124_3667">
<rect width="40" height="40" fill="white"/>
</clipPath>
</defs>
</svg>
