<svg width="18" height="18" viewBox="0 0 18 18" fill="none" xmlns="http://www.w3.org/2000/svg">
<g clip-path="url(#clip0_2026_1393)">
<path d="M0.593357 17.627C0.855326 16.8476 1.04355 16.135 1.33291 15.4668C1.66862 14.6923 1.58856 14.0803 1.1489 13.3164C-1.81563 8.1701 1.24231 1.4383 7.05128 0.205899C12.0329 -0.851352 16.7891 2.26272 17.8222 7.25776C18.8321 12.1417 15.4343 17.0762 10.5257 17.8711C8.30072 18.2312 6.22674 17.8401 4.30447 16.6647C4.11273 16.5472 3.954 16.5409 3.75173 16.6077C2.73335 16.9432 1.71076 17.2682 0.594059 17.6277L0.593357 17.627ZM3.78966 6.65773C3.80019 6.79561 3.79949 7.00382 3.84093 7.21344C4.03618 8.19683 4.58048 8.99593 5.15639 9.78165C6.58001 11.7252 8.36463 13.1665 10.7252 13.8123C11.2561 13.9579 11.7885 14.1169 12.3433 13.9931C13.7964 13.6695 14.4004 12.9133 14.4082 11.6964C14.4096 11.5093 14.3422 11.3855 14.175 11.3053C13.5015 10.9831 12.8293 10.6581 12.1558 10.3353C11.8545 10.191 11.615 10.2726 11.4219 10.5357C11.2421 10.7812 11.0623 11.0267 10.8748 11.2659C10.6072 11.6078 10.4281 11.6591 10.0228 11.4966C8.51001 10.8896 7.39612 9.82527 6.55824 8.44725C6.43744 8.24889 6.45289 8.07444 6.60389 7.9035C6.79001 7.69318 6.98385 7.48848 7.15452 7.2662C7.29498 7.0826 7.43966 6.89127 7.32799 6.62678C7.02248 5.90647 6.72399 5.18335 6.42199 4.46163C6.3658 4.32798 6.28644 4.188 6.14176 4.1683C5.58903 4.09163 5.04612 4.06701 4.60857 4.52565C4.05654 5.10457 3.77983 5.78759 3.78896 6.65844L3.78966 6.65773Z" fill="#38D547"/>
</g>
<defs>
<clipPath id="clip0_2026_1393">
<rect width="18" height="18" fill="white"/>
</clipPath>
</defs>
</svg>
