<svg width="14" height="8" viewBox="0 0 14 8" fill="none" xmlns="http://www.w3.org/2000/svg">
<path d="M0.292786 0.292787C0.480314 0.105316 0.734622 0 0.999786 0C1.26495 0 1.51926 0.105316 1.70679 0.292787L6.65679 5.24279L11.6068 0.292787C11.7954 0.110629 12.048 0.00983372 12.3102 0.0121121C12.5724 0.0143906 12.8232 0.11956 13.0086 0.304968C13.194 0.490376 13.2992 0.741188 13.3015 1.00339C13.3037 1.26558 13.2029 1.51818 13.0208 1.70679L7.36379 7.36379C7.17626 7.55126 6.92195 7.65657 6.65679 7.65657C6.39162 7.65657 6.13731 7.55126 5.94979 7.36379L0.292786 1.70679C0.105315 1.51926 0 1.26495 0 0.999786C0 0.734622 0.105315 0.480314 0.292786 0.292787Z" fill="#6F6F6F"/>
</svg>
