<svg width="26" height="26" viewBox="0 0 26 26" fill="none" xmlns="http://www.w3.org/2000/svg">
<path fill-rule="evenodd" clip-rule="evenodd" d="M0.695943 0.0561662C0.301662 0.21209 0 0.664817 0 1.10047C0 1.37063 0.14182 1.70913 0.336887 1.9045C0.417883 1.98558 1.01404 2.31373 1.6617 2.63362C2.30937 2.95351 2.89021 3.26875 2.95242 3.33413C3.04755 3.43403 3.28562 4.47954 4.44425 9.88551C5.39577 14.3252 5.86388 16.41 5.95532 16.6149C6.25161 17.2788 6.78873 17.808 7.46067 18.0981L7.75434 18.2248L14.6406 18.2417C19.7214 18.2542 21.6006 18.242 21.8084 18.1952C22.2681 18.0916 22.7064 17.8363 23.0925 17.447C23.704 16.8306 23.6573 16.9896 24.8829 11.3586C25.4757 8.63544 25.9743 6.24247 25.9909 6.04097C26.1012 4.70172 25.1982 3.38561 23.9539 3.07223C23.669 3.00045 22.5995 2.98951 15.8037 2.9888C7.23001 2.98792 7.78916 2.9667 7.45539 3.30546C7.2379 3.52622 7.14968 3.74763 7.14585 4.08218C7.14113 4.49114 7.31147 4.81519 7.6479 5.03737L7.89985 5.20374L15.7543 5.2311L23.6087 5.25845L23.7581 5.43714C23.8671 5.56746 23.9075 5.67151 23.9075 5.82169C23.9075 6.11855 21.8323 15.6062 21.7314 15.7709C21.544 16.0764 21.8426 16.0637 14.8198 16.0637C7.8894 16.0637 8.14268 16.0734 7.91388 15.799C7.84332 15.7144 7.4492 13.9647 6.44545 9.28036C5.52756 4.99666 5.02919 2.77417 4.9398 2.56551C4.75041 2.12345 4.44604 1.72434 4.10536 1.47136C3.7013 1.17132 1.39306 0.0396437 1.11511 0.00528567C0.985779 -0.0106897 0.811498 0.0104832 0.695943 0.0561662ZM9.75109 20.4498C8.72287 20.6579 7.84046 21.6479 7.66991 22.785C7.51442 23.822 7.97245 24.9266 8.80391 25.5199C9.59585 26.085 10.5819 26.1504 11.4406 25.6946C12.8397 24.9522 13.3061 23.0447 12.4309 21.6442C11.8499 20.7144 10.7864 20.2404 9.75109 20.4498ZM18.8132 20.4498C18.3881 20.5358 17.839 20.8525 17.5157 21.1979C17.0481 21.6976 16.821 22.1832 16.7438 22.8478C16.5722 24.3262 17.4733 25.6455 18.8608 25.947C20.5697 26.3184 22.1777 24.6799 21.9273 22.8225C21.7133 21.2349 20.2906 20.151 18.8132 20.4498ZM10.6875 22.2949C10.9222 22.4229 11.0299 22.5471 11.1315 22.807C11.2356 23.0734 11.2294 23.3725 11.1139 23.6411C11.0021 23.9014 10.8879 24.018 10.6341 24.1314C10.3017 24.2798 9.86623 24.2044 9.60671 23.9536C9.23239 23.5918 9.23137 22.8072 9.60486 22.458C9.90264 22.1794 10.3518 22.1118 10.6875 22.2949ZM19.9004 22.3901C20.1872 22.6349 20.2814 22.864 20.2603 23.2652C20.2386 23.6793 20.063 23.9567 19.7199 24.1188C18.8445 24.5326 18.023 23.4818 18.553 22.626C18.838 22.1658 19.5017 22.0496 19.9004 22.3901Z" fill="#6F6F6F"/>
</svg>
