<svg width="14" height="14" viewBox="0 0 14 14" fill="none" xmlns="http://www.w3.org/2000/svg">
<path fill-rule="evenodd" clip-rule="evenodd" d="M0.374739 0.0302433C0.162434 0.114202 0 0.357979 0 0.592563C0 0.738034 0.0763647 0.920299 0.181401 1.0255C0.225014 1.06916 0.546022 1.24585 0.894763 1.4181C1.2435 1.59035 1.55627 1.7601 1.58977 1.7953C1.64099 1.84909 1.76918 2.41206 2.39306 5.32297C2.90542 7.71357 3.15748 8.83614 3.20671 8.94647C3.36625 9.30399 3.65547 9.58895 4.01728 9.74511L4.17541 9.81334L7.88338 9.82244C10.6192 9.82919 11.6311 9.82262 11.743 9.7974C11.9905 9.74164 12.2265 9.60415 12.4344 9.39455C12.7637 9.06263 12.7385 9.14827 13.3985 6.11619C13.7177 4.64985 13.9862 3.36133 13.9951 3.25283C14.0545 2.5317 13.5683 1.82302 12.8983 1.65428C12.7448 1.61563 12.169 1.60974 8.50968 1.60935C3.89309 1.60888 4.19416 1.59745 4.01444 1.77986C3.89733 1.89873 3.84983 2.01795 3.84776 2.1981C3.84523 2.41831 3.93695 2.59279 4.1181 2.71243L4.25376 2.80201L8.48308 2.81674L12.7124 2.83147L12.7928 2.92769C12.8515 2.99786 12.8733 3.05389 12.8733 3.13476C12.8733 3.2946 11.7558 8.40336 11.7015 8.492C11.6006 8.6565 11.7614 8.6497 7.97987 8.6497C4.24814 8.6497 4.38452 8.65491 4.26132 8.50717C4.22333 8.4616 4.01111 7.51946 3.47063 4.99712C2.97638 2.69051 2.70803 1.49378 2.65989 1.38143C2.55792 1.14339 2.39402 0.928488 2.21058 0.792268C1.99301 0.630713 0.750111 0.0213466 0.600442 0.00284613C0.530804 -0.005756 0.436961 0.00564478 0.374739 0.0302433ZM5.25059 11.0115C4.69693 11.1235 4.22178 11.6566 4.12995 12.2688C4.04623 12.8272 4.29286 13.422 4.74057 13.7415C5.167 14.0458 5.69794 14.081 6.16035 13.8356C6.91371 13.4358 7.16483 12.4087 6.69355 11.6546C6.3807 11.1539 5.80805 10.8987 5.25059 11.0115ZM10.1302 11.0115C9.90131 11.0578 9.60561 11.2282 9.43154 11.4143C9.17976 11.6833 9.05744 11.9448 9.01589 12.3027C8.92348 13.0987 9.40871 13.8091 10.1558 13.9715C11.076 14.1715 11.9418 13.2892 11.807 12.289C11.6918 11.4342 10.9257 10.8505 10.1302 11.0115ZM5.75481 12.0049C5.88116 12.0738 5.93916 12.1407 5.99389 12.2807C6.04996 12.4241 6.0466 12.5852 5.98443 12.7298C5.92419 12.87 5.86272 12.9328 5.72603 12.9938C5.54709 13.0737 5.31259 13.0331 5.17284 12.8981C4.97129 12.7033 4.97074 12.2808 5.17185 12.0928C5.33219 11.9428 5.57405 11.9063 5.75481 12.0049ZM10.7156 12.0562C10.87 12.188 10.9208 12.3114 10.9094 12.5274C10.8977 12.7504 10.8032 12.8997 10.6184 12.9871C10.147 13.2099 9.70472 12.644 9.99008 12.1832C10.1435 11.9354 10.5009 11.8729 10.7156 12.0562Z" fill="white"/>
</svg>
