<svg width="35" height="35" viewBox="0 0 35 35" fill="none" xmlns="http://www.w3.org/2000/svg">
<g clip-path="url(#clip0_2026_1483)">
<path d="M17.5293 0.502582C20.3764 0.502582 23.2234 0.497115 26.0705 0.502582C31.114 0.513518 34.9875 4.37098 34.9944 9.40264C35.0026 15.1205 35.0012 20.8383 34.9944 26.5562C34.9889 31.6357 31.1263 35.4904 26.0418 35.4959C20.3477 35.5014 14.6535 35.5014 8.95805 35.4959C3.86396 35.4918 0.00956765 31.6466 0.00410042 26.563C-0.00136681 20.8684 -0.00136681 15.1738 0.00410042 9.47782C0.00820084 4.34638 3.85303 0.50805 8.98676 0.501215C11.8338 0.498481 14.6809 0.501215 17.5279 0.501215L17.5293 0.502582ZM14.7465 23.4C14.7465 25.017 14.7615 26.6327 14.7369 28.2485C14.7301 28.6995 14.8695 28.8335 15.3137 28.8198C16.2691 28.7898 17.2272 28.7734 18.1813 28.8239C18.7635 28.8554 18.892 28.6626 18.8865 28.1036C18.8592 24.9624 18.8838 21.8198 18.8633 18.6786C18.8606 18.1701 18.9508 17.9405 19.5235 17.9856C20.2246 18.0402 20.9354 17.9664 21.6393 18.0102C22.0999 18.0389 22.2325 17.8448 22.2571 17.4374C22.2995 16.7335 22.3965 16.0322 22.4129 15.3283C22.4252 14.7665 22.8188 14.0543 22.4484 13.6921C22.0671 13.3203 21.3222 13.5772 20.7386 13.5718C18.9726 13.5567 18.9316 13.5198 19.1613 11.7579C19.2433 11.1291 19.5727 10.7627 20.2383 10.7627C20.8301 10.7627 21.422 10.7477 22.0138 10.7668C22.35 10.7778 22.514 10.693 22.5072 10.3171C22.4881 9.3835 22.4949 8.44989 22.5045 7.51765C22.5072 7.20736 22.4074 7.06793 22.0712 7.07476C20.934 7.09527 19.7914 7.03649 18.6583 7.11167C16.5944 7.24836 15.2768 8.25989 14.7137 10.0219C14.495 10.704 14.4704 11.4052 14.4717 12.1119C14.4731 13.5171 14.4717 13.5376 13.0708 13.5567C12.6088 13.5636 12.4844 13.7303 12.4994 14.1609C12.5254 14.9114 12.5063 15.6632 12.5063 16.415C12.5063 17.9869 12.5063 18.017 14.1027 17.9856C14.6822 17.9733 14.7697 18.1879 14.7601 18.6895C14.7328 20.2601 14.7506 21.8307 14.7506 23.4027L14.7465 23.4Z" fill="#D1210F"/>
</g>
<defs>
<clipPath id="clip0_2026_1483">
<rect width="35" height="35" fill="white"/>
</clipPath>
</defs>
</svg>
