<svg width="35" height="35" viewBox="0 0 35 35" fill="none" xmlns="http://www.w3.org/2000/svg">
<g clip-path="url(#clip0_2026_1485)">
<path d="M9.75895e-05 17.4672C9.75895e-05 14.7335 -0.00126933 11.9998 0.00146451 9.26603C0.00966603 4.12524 4.10496 0.0109734 9.22818 0.00413905C14.741 -0.00269529 20.2538 -0.00132842 25.7666 0.00413905C30.8925 0.00960652 34.9905 4.12251 34.9946 9.2633C35.0001 14.7526 35.0001 20.2433 34.9946 25.7327C34.9892 30.9035 30.887 34.9905 25.6996 34.9946C20.2319 34.9987 14.7642 34.9987 9.29789 34.9946C4.08309 34.9918 0.00693219 30.8981 0.00146451 25.6684C-0.00126933 22.9347 0.00146451 20.201 0.00146451 17.4672H9.75895e-05ZM6.15397 17.4317C6.15397 19.1621 6.14714 20.894 6.15534 22.6244C6.17174 26.1086 8.86731 28.8273 12.3393 28.8409C15.7785 28.8546 19.2176 28.8546 22.6568 28.8409C26.0987 28.8273 28.8216 26.1236 28.838 22.6928C28.8558 19.2305 28.8544 15.7696 28.838 12.3073C28.8216 8.87647 26.0987 6.17144 22.6568 6.15914C19.2176 6.14684 15.7785 6.14684 12.3393 6.15914C8.87005 6.17144 6.17174 8.89151 6.15534 12.3743C6.14714 14.0596 6.15534 15.745 6.15534 17.4303L6.15397 17.4317Z" fill="#D1210F"/>
<path d="M26.7957 17.5343C26.7957 19.2197 26.7998 20.905 26.7957 22.5917C26.7903 24.9961 25.0133 26.7908 22.6253 26.7962C19.208 26.8017 15.7907 26.8017 12.3747 26.7962C9.98808 26.7921 8.20835 24.9947 8.20425 22.5931C8.20015 19.1992 8.20015 15.8052 8.20425 12.4113C8.20698 10.0084 9.98671 8.2123 12.3747 8.2082C15.792 8.20273 19.2093 8.20273 22.6253 8.2082C25.0133 8.2123 26.7889 10.007 26.7957 12.4113C26.7998 14.1199 26.7957 15.8285 26.7957 17.5371V17.5343ZM17.4118 12.3935C14.5591 12.4523 12.3228 14.7746 12.3925 17.6054C12.4622 20.4307 14.7477 22.6478 17.5526 22.6095C20.4013 22.5712 22.6553 20.2612 22.6075 17.4305C22.5583 14.5792 20.2441 12.3348 17.4118 12.3935ZM24.3763 11.6213C24.3763 11.054 23.9594 10.6317 23.3921 10.6248C22.8262 10.6166 22.3942 11.0294 22.3778 11.5912C22.3614 12.1858 22.803 12.6328 23.3962 12.6232C23.9607 12.6136 24.3763 12.1885 24.3763 11.6213Z" fill="#D1210F"/>
<path d="M20.5736 17.4971C20.575 19.1948 19.1998 20.5739 17.5021 20.5753C15.8058 20.5767 14.4252 19.1989 14.4238 17.5026C14.4225 15.8063 15.8003 14.4258 17.4967 14.4258C19.1957 14.4258 20.5722 15.7995 20.5736 17.4985V17.4971Z" fill="#D1210F"/>
</g>
<defs>
<clipPath id="clip0_2026_1485">
<rect width="35" height="35" fill="white"/>
</clipPath>
</defs>
</svg>
