<svg width="26" height="26" viewBox="0 0 26 26" fill="none" xmlns="http://www.w3.org/2000/svg">
<path d="M21.3138 4.99951H4.68976C3.2058 4.99951 1.99951 6.15231 1.99951 7.57047V18.4286C1.99951 19.8467 3.2058 20.9995 4.68976 20.9995H21.3092C22.7932 20.9995 23.9995 19.8467 23.9995 18.4286V7.57482C24.0041 6.15666 22.7978 4.99951 21.3138 4.99951ZM22.775 18.4286C22.775 19.1985 22.1195 19.825 21.3138 19.825H4.68976C3.88405 19.825 3.22856 19.1985 3.22856 18.4286V7.57482C3.22856 6.80484 3.88405 6.17841 4.68976 6.17841H21.3092C22.115 6.17841 22.7705 6.80484 22.7705 7.57482V18.4286H22.775Z" fill="#D1210F"/>
<path d="M15.713 12.856L20.7977 8.06774C21.0343 7.84187 21.0558 7.45791 20.8407 7.20494C20.6256 6.95649 20.26 6.9339 20.0191 7.15977L13.0072 13.7685L11.6392 12.4856C11.6349 12.4811 11.6306 12.4766 11.6306 12.4721C11.6005 12.4404 11.5704 12.4133 11.536 12.3862L5.96946 7.15525C5.72856 6.92939 5.36291 6.95197 5.14782 7.20494C4.93273 7.45791 4.95424 7.84187 5.19514 8.06774L10.3401 12.8967L5.21665 17.9334C4.98435 18.1638 4.97145 18.5478 5.19084 18.7962C5.30699 18.9227 5.46185 18.9905 5.61671 18.9905C5.75867 18.9905 5.90063 18.9363 6.01248 18.8279L11.2133 13.7188L12.6243 15.0424C12.7362 15.1463 12.8738 15.196 13.0115 15.196C13.1491 15.196 13.2911 15.1418 13.3986 15.0379L14.8483 13.6737L20.0191 18.8324C20.1309 18.9453 20.2772 18.9995 20.4191 18.9995C20.574 18.9995 20.7245 18.9363 20.8407 18.8098C21.0601 18.5659 21.0515 18.1774 20.8192 17.947L15.713 12.856Z" fill="#D1210F"/>
</svg>
