<svg width="26" height="24" viewBox="0 0 26 24" fill="none" xmlns="http://www.w3.org/2000/svg">
<path fill-rule="evenodd" clip-rule="evenodd" d="M5.61145 0.0702398C4.16758 0.373017 2.88449 1.12808 1.90584 2.25088C1.14465 3.12415 0.655899 4.01342 0.333815 5.11097C-0.218288 6.99228 -0.0790657 9.23024 0.703402 11.0511C1.25562 12.3362 1.26888 12.3524 6.37068 18.0089C8.97364 20.8948 11.2414 23.3579 11.4101 23.4823C12.2863 24.1288 13.4616 24.1739 14.339 23.5946C14.5885 23.4299 15.9419 21.9747 19.4806 18.0664C22.1222 15.1488 24.4318 12.546 24.613 12.2823C26.1791 10.0035 26.4445 6.79674 25.2789 4.23682C23.534 0.404895 19.3831 -1.04523 15.8074 0.928012C15.0445 1.34899 14.5045 1.79516 13.681 2.68462L12.9149 3.51204L12.1018 2.60345C10.892 1.25151 9.91263 0.585451 8.55494 0.191312C8.08003 0.0534719 7.83462 0.0238254 7.0103 0.00488992C6.33949 -0.0104753 5.89814 0.010118 5.61145 0.0702398ZM8.03616 2.2067C8.61241 2.36972 9.18308 2.63769 9.60859 2.94506C9.79658 3.08086 10.5081 3.80002 11.1898 4.54316C12.9961 6.51227 12.8519 6.50678 14.5335 4.66927C15.1835 3.95903 15.832 3.29106 15.9747 3.18491C16.5821 2.73313 17.4315 2.35066 18.1327 2.21333C18.6366 2.11464 19.6625 2.13172 20.1711 2.24731C21.9739 2.65707 23.4365 4.21431 23.9383 6.25858C24.117 6.98642 24.117 8.336 23.9383 9.06384C23.7819 9.70108 23.4853 10.3994 23.1516 10.9167C22.8542 11.3776 13.701 21.5837 13.4015 21.7885C13.1357 21.9702 12.7061 21.9727 12.4469 21.7941C12.3421 21.7219 10.1927 19.3732 7.67043 16.5747C4.22292 12.7496 3.01633 11.3719 2.81 11.0245C2.44566 10.4114 2.21409 9.83306 2.03809 9.09642C1.8396 8.266 1.83003 6.90341 2.01722 6.13107C2.409 4.51454 3.37133 3.23151 4.69426 2.56176C5.76116 2.02168 6.93939 1.89653 8.03616 2.2067Z" fill="#6F6F6F"/>
</svg>
