<svg width="19" height="26" viewBox="0 0 19 26" fill="none" xmlns="http://www.w3.org/2000/svg">
<path d="M2.86989 14.5275C3.68985 16.2533 4.80087 17.9725 5.93693 19.5163C7.01462 20.9716 8.16695 22.3657 9.38892 23.6925C10.6109 22.3657 11.7632 20.9717 12.8409 19.5163C13.977 17.9725 15.088 16.2533 15.908 14.5275C16.7373 12.7839 17.213 11.1508 17.213 9.75C17.213 7.59512 16.3887 5.52849 14.9214 4.00476C13.4541 2.48102 11.464 1.625 9.38892 1.625C7.31384 1.625 5.32375 2.48102 3.85645 4.00476C2.38915 5.52849 1.56483 7.59512 1.56483 9.75C1.56483 11.1508 2.0421 12.7839 2.86989 14.5275ZM9.38892 26C9.38892 26 9.53674e-06 16.7603 9.53674e-06 9.75C9.53674e-06 7.16414 0.989197 4.68419 2.74996 2.85571C4.51072 1.02723 6.89883 0 9.38892 0C11.879 0 14.2671 1.02723 16.0279 2.85571C17.7886 4.68419 18.7778 7.16414 18.7778 9.75C18.7778 16.7603 9.38892 26 9.38892 26Z" fill="#D1210F"/>
<path d="M9.38928 13.0006C10.2193 13.0006 11.0154 12.6581 11.6023 12.0487C12.1892 11.4392 12.5189 10.6125 12.5189 9.75056C12.5189 8.8886 12.1892 8.06195 11.6023 7.45246C11.0154 6.84297 10.2193 6.50056 9.38928 6.50056C8.55925 6.50056 7.76322 6.84297 7.1763 7.45246C6.58938 8.06195 6.25965 8.8886 6.25965 9.75056C6.25965 10.6125 6.58938 11.4392 7.1763 12.0487C7.76322 12.6581 8.55925 13.0006 9.38928 13.0006ZM9.38928 14.6256C8.14424 14.6256 6.95018 14.1119 6.0698 13.1977C5.18942 12.2835 4.69483 11.0435 4.69483 9.75056C4.69483 8.45763 5.18942 7.21765 6.0698 6.30341C6.95018 5.38917 8.14424 4.87556 9.38928 4.87556C10.6343 4.87556 11.8284 5.38917 12.7088 6.30341C13.5891 7.21765 14.0837 8.45763 14.0837 9.75056C14.0837 11.0435 13.5891 12.2835 12.7088 13.1977C11.8284 14.1119 10.6343 14.6256 9.38928 14.6256Z" fill="#D1210F"/>
</svg>
