<svg width="18" height="15" viewBox="0 0 18 15" fill="none" xmlns="http://www.w3.org/2000/svg">
<path d="M5.5 14.5H15.5V12.5H5.5V14.5ZM5.5 8.5H11.5V6.5H5.5V8.5ZM5.5 0.5V2.5H17.5V0.5H5.5ZM1.5 8.34156e-08C1.30295 6.57402e-05 1.10785 0.0389422 0.925822 0.11441C0.743798 0.189878 0.578421 0.300459 0.439133 0.43984C0.299845 0.579221 0.189374 0.744671 0.114028 0.926745C0.0386811 1.10882 -6.55776e-05 1.30395 8.33136e-08 1.501C6.57443e-05 1.69805 0.0389424 1.89315 0.11441 2.07518C0.189878 2.2572 0.300459 2.42258 0.43984 2.56187C0.579221 2.70116 0.744671 2.81163 0.926745 2.88697C1.10882 2.96232 1.30395 3.00107 1.501 3.001C1.89896 3.00087 2.28056 2.84265 2.56187 2.56116C2.84317 2.27967 3.00113 1.89796 3.001 1.5C3.00087 1.10204 2.84265 0.720437 2.56116 0.439133C2.27967 0.157828 1.89796 -0.000132516 1.5 8.34156e-08ZM1.5 6C1.30295 6.00007 1.10785 6.03894 0.925822 6.11441C0.743798 6.18988 0.578421 6.30046 0.439133 6.43984C0.299845 6.57922 0.189374 6.74467 0.114027 6.92675C0.0386808 7.10882 -6.55776e-05 7.30395 8.33136e-08 7.501C6.57443e-05 7.69805 0.0389424 7.89315 0.11441 8.07518C0.189878 8.2572 0.300459 8.42258 0.43984 8.56187C0.579221 8.70116 0.744671 8.81163 0.926745 8.88697C1.10882 8.96232 1.30395 9.00107 1.501 9.001C1.89896 9.00087 2.28056 8.84265 2.56187 8.56116C2.84317 8.27967 3.00113 7.89796 3.001 7.5C3.00087 7.10204 2.84265 6.72044 2.56116 6.43913C2.27967 6.15783 1.89796 5.99987 1.5 6ZM1.5 12C1.30295 12.0001 1.10785 12.0389 0.925822 12.1144C0.743798 12.1899 0.578421 12.3005 0.439133 12.4398C0.299845 12.5792 0.189374 12.7447 0.114027 12.9267C0.0386808 13.1088 -6.55776e-05 13.304 8.33136e-08 13.501C6.57443e-05 13.698 0.0389424 13.8932 0.11441 14.0752C0.189878 14.2572 0.300459 14.4226 0.43984 14.5619C0.579221 14.7012 0.744671 14.8116 0.926745 14.887C1.10882 14.9623 1.30395 15.0011 1.501 15.001C1.89896 15.0009 2.28056 14.8427 2.56187 14.5612C2.84317 14.2797 3.00113 13.898 3.001 13.5C3.00087 13.102 2.84265 12.7204 2.56116 12.4391C2.27967 12.1578 1.89796 11.9999 1.5 12Z" fill="white"/>
</svg>
