<svg width="26" height="26" viewBox="0 0 26 26" fill="none" xmlns="http://www.w3.org/2000/svg">
<path d="M25.675 24.1583L19.8467 18.33C21.45 16.38 22.4467 13.9317 22.4467 11.2233C22.4683 5.04833 17.42 0 11.2233 0C5.02667 0 0 5.04833 0 11.2233C0 17.3983 5.04833 22.4467 11.2233 22.4467C13.9317 22.4467 16.38 21.45 18.33 19.8467L24.1583 25.675C24.375 25.8917 24.6567 26 24.9167 26C25.1767 26 25.48 25.8917 25.675 25.675C26.1083 25.2633 26.1083 24.57 25.675 24.1583ZM2.16667 11.2233C2.16667 6.24 6.24 2.16667 11.2233 2.16667C16.2067 2.16667 20.28 6.24 20.28 11.2233C20.28 16.2067 16.2067 20.28 11.2233 20.28C6.24 20.28 2.16667 16.2283 2.16667 11.2233Z" fill="white"/>
</svg>
