<svg width="18" height="18" viewBox="0 0 18 18" fill="none" xmlns="http://www.w3.org/2000/svg">
<path d="M8.98313 18C4.02086 17.9986 -0.000702978 13.9616 9.21717e-08 8.98172C0.000703162 4.00539 4.04054 -0.0028108 9.05273 1.47898e-06C13.9827 0.00281376 18.0042 4.05601 17.9993 9.01617C17.9951 13.9827 13.9623 18.0007 8.98242 17.9993L8.98313 18ZM14.4228 8.34123C14.446 7.6944 14.3757 7.05531 14.266 6.41903C14.0389 5.10359 12.8795 3.87603 11.5782 3.62081C9.8711 3.28615 8.14647 3.251 6.44997 3.62784C5.05297 3.9386 4.1214 4.84205 3.78181 6.26084C3.50129 7.43497 3.53715 8.62738 3.66651 9.82259C3.79517 11.0122 4.38716 11.8967 5.35669 12.5639C5.62245 12.7467 6.05203 12.7586 6.16452 13.0469C6.27982 13.3422 6.19475 13.7162 6.19475 14.0558C6.19475 14.3004 6.28334 14.491 6.51957 14.5866C6.75299 14.6808 6.92383 14.5669 7.07851 14.4059C7.40333 14.0684 7.73447 13.7366 8.05437 13.3942C8.16686 13.274 8.28006 13.2163 8.4502 13.2248C9.36489 13.2697 10.2733 13.2058 11.1809 13.0806C12.7199 12.8683 14.0023 11.697 14.2618 10.2269C14.3722 9.60324 14.4439 8.9761 14.4214 8.34123H14.4228Z" fill="#824AAC"/>
</svg>
